<?xml version="1.0" standalone="no"?>
<!DOCTYPE svg PUBLIC "-//W3C//DTD SVG 20010904//EN"
 "http://www.w3.org/TR/2001/REC-SVG-20010904/DTD/svg10.dtd">
<svg version="1.0" xmlns="http://www.w3.org/2000/svg"
 width="1000.000000pt" height="1000.000000pt" viewBox="0 0 1000.000000 1000.000000"
 preserveAspectRatio="xMidYMid meet">

<g transform="translate(0.000000,1000.000000) scale(0.100000,-0.100000)"
fill="#000000" stroke="none">
<path d="M4230 8035 c-14 -7 -56 -29 -95 -48 -47 -23 -77 -45 -92 -68 -13 -19
-34 -47 -48 -64 -28 -34 -32 -67 -10 -89 8 -8 15 -24 15 -37 0 -19 4 -21 31
-15 21 4 35 1 46 -9 13 -13 12 -15 -6 -15 -34 0 -24 -17 32 -54 28 -19 88 -65
132 -102 44 -37 103 -82 132 -101 36 -23 50 -38 47 -48 -4 -8 -13 -15 -20 -15
-23 0 -87 36 -112 62 -12 14 -45 35 -72 48 -28 13 -50 27 -50 32 0 4 -11 8
-25 8 -14 0 -25 6 -25 13 0 6 -12 21 -27 31 l-26 19 6 -30 c10 -52 -19 -51
-70 2 -25 25 -51 45 -59 45 -8 0 -14 4 -14 10 0 5 -29 33 -65 61 -63 49 -80
80 -52 93 6 3 3 5 -8 3 -16 -2 -21 -11 -23 -49 -3 -45 -2 -47 54 -93 32 -25
76 -56 98 -67 23 -12 64 -39 93 -62 81 -65 184 -140 212 -155 14 -7 48 -36 75
-63 l50 -50 -14 -46 c-25 -88 -24 -135 5 -209 15 -37 31 -72 36 -78 13 -13 10
-47 -6 -69 -10 -13 -11 -25 -4 -43 5 -14 6 -29 3 -34 -3 -6 -47 -10 -97 -9
-51 1 -123 -2 -160 -6 -47 -5 -75 -3 -91 6 -30 15 -60 10 -64 -12 -3 -14 3
-16 32 -11 24 4 36 2 36 -6 0 -6 -5 -11 -11 -11 -6 0 -9 -7 -5 -15 4 -13 2
-13 -14 -5 -10 5 -30 10 -44 10 -17 0 -26 6 -26 15 0 9 -7 18 -15 21 -8 4 -15
13 -15 20 0 12 4 12 25 -2 25 -17 32 -10 16 15 -11 17 -66 8 -92 -15 -14 -13
-27 -14 -75 -6 -115 19 -129 11 -69 -41 19 -16 35 -37 35 -45 0 -11 -10 -6
-33 16 -52 50 -63 42 -58 -43 1 -27 0 -28 -12 -13 -9 11 -18 14 -28 7 -8 -5
-23 -9 -35 -9 -11 0 -33 -14 -49 -30 -33 -34 -79 -50 -147 -50 -27 0 -48 -4
-48 -10 0 -20 -27 -9 -41 17 l-14 26 -6 -29 c-11 -48 -10 -64 4 -64 10 0 13
-14 9 -57 -2 -32 -6 -60 -9 -63 -8 -9 -23 25 -23 53 0 16 -7 67 -17 113 -12
64 -13 88 -5 96 9 9 16 7 27 -8 15 -18 16 -17 10 14 -5 22 -3 32 5 32 9 0 10
10 6 33 -13 68 -39 137 -52 137 -18 0 -34 -32 -34 -69 0 -38 -18 -40 -49 -7
-27 28 -21 71 7 62 21 -7 53 13 35 20 -30 13 -134 85 -139 97 -3 8 -36 19 -77
27 -40 7 -91 21 -114 31 -39 17 -93 26 -93 15 0 -22 23 -55 39 -58 19 -3 19
-4 -4 -15 -24 -11 -27 -9 -45 27 -11 22 -20 46 -20 55 0 19 -5 19 -27 1 -82
-67 -84 -68 -77 -90 5 -17 4 -19 -7 -8 -7 6 -23 12 -36 12 -20 0 -22 4 -16 33
5 26 3 30 -8 20 -7 -7 -23 -13 -34 -13 -23 0 -63 -39 -85 -82 -16 -32 -25 -35
-39 -10 -9 16 -13 15 -58 -8 -28 -15 -60 -43 -78 -68 -29 -42 -30 -46 -27
-147 3 -115 3 -116 -69 -129 -21 -4 -42 -13 -49 -21 -9 -11 -16 -12 -30 -2
-24 14 -55 -11 -63 -52 -5 -25 -12 -29 -49 -35 -24 -3 -59 -2 -78 3 -33 8 -34
8 -10 14 14 3 42 9 62 12 21 3 40 10 43 15 7 11 -12 51 -29 62 -19 13 -76 9
-76 -4 -1 -7 -21 9 -45 35 l-44 48 -27 -30 -27 -31 -303 6 c-167 3 -307 3
-313 0 -5 -3 9 -33 31 -67 22 -33 37 -63 34 -67 -4 -3 -11 0 -16 8 -24 42 -65
90 -76 90 -15 0 -60 -61 -56 -76 1 -7 -5 -11 -15 -10 -9 0 -27 -14 -39 -32
l-23 -33 -51 46 c-49 44 -68 55 -55 35 4 -6 -8 -27 -25 -48 -17 -20 -40 -47
-50 -60 -11 -13 -24 -21 -29 -18 -12 8 -24 -77 -20 -141 3 -54 2 -55 -88 -38
-27 5 -43 4 -43 -2 0 -14 46 -33 79 -33 30 0 79 -29 50 -30 -19 0 -71 -59 -63
-72 3 -4 12 -8 20 -8 8 0 14 -6 14 -12 0 -7 17 -32 38 -56 30 -34 43 -42 71
-42 l34 0 -22 -24 c-20 -22 -21 -25 -6 -40 38 -37 51 -11 32 64 -11 44 -19 56
-38 60 -20 5 -21 7 -7 13 36 13 17 27 -39 28 l-58 0 50 14 c92 26 92 26 121
-108 15 -74 20 -83 90 -163 96 -109 166 -215 220 -329 135 -284 107 -512 -88
-710 -43 -44 -78 -87 -78 -97 0 -14 50 -59 160 -145 8 -6 45 -36 81 -65 37
-29 104 -82 150 -118 46 -36 121 -95 168 -132 46 -38 89 -68 96 -68 7 0 41 13
76 29 217 97 446 140 757 141 l144 0 35 -36 c34 -36 61 -41 30 -6 -10 10 -17
24 -17 30 0 25 21 10 56 -38 38 -54 54 -62 54 -30 0 35 40 80 72 80 36 0 35
-10 -7 -68 -33 -46 -38 -75 -9 -51 11 9 16 6 23 -14 5 -13 15 -27 23 -29 7 -3
41 -26 74 -52 64 -47 89 -54 127 -34 22 12 621 23 927 17 171 -3 1680 -3 1890
0 156 3 400 -6 408 -14 3 -3 -8 -5 -24 -5 -36 0 -59 -14 -49 -30 6 -9 3 -9
-13 -1 -12 6 -24 16 -27 21 -8 13 -55 13 -75 0 -12 -7 -4 -19 41 -62 86 -81
131 -118 145 -118 7 0 19 -8 26 -18 14 -20 104 -73 206 -122 34 -17 62 -34 62
-39 0 -4 11 -6 24 -4 13 3 27 0 30 -6 4 -6 20 -11 36 -11 16 0 32 -5 35 -10 5
-8 11 -8 20 0 10 8 14 7 17 -2 7 -19 53 15 82 60 28 44 112 132 125 132 5 0
19 16 31 35 12 20 36 42 53 49 18 8 44 26 60 41 15 14 42 31 60 37 17 6 49 22
71 35 21 14 48 26 60 27 11 2 28 6 36 9 8 3 31 8 50 12 134 23 145 24 152 12
6 -9 10 -9 17 1 5 9 23 13 47 11 22 -2 46 1 53 6 9 5 18 3 25 -7 8 -10 23 -13
49 -10 47 5 92 -14 74 -33 -7 -7 -30 -18 -52 -25 -58 -18 -182 -78 -190 -91
-5 -7 18 -10 76 -9 88 2 187 -8 204 -20 8 -6 98 -35 140 -45 22 -5 125 -57
130 -66 4 -5 13 -9 21 -9 8 0 51 -23 96 -50 l81 -51 41 28 c23 15 43 30 46 33
5 6 182 149 340 275 55 44 100 83 100 87 0 4 15 15 33 24 17 9 59 40 92 69 33
28 100 82 150 120 124 94 119 87 82 121 -77 71 -69 69 -123 25 -102 -83 -194
-159 -290 -239 -54 -46 -110 -93 -124 -104 -14 -12 -41 -35 -61 -52 -19 -17
-55 -47 -80 -68 -24 -20 -55 -46 -68 -57 -45 -39 -46 -21 -1 20 25 23 69 63
98 90 29 27 65 57 80 66 15 10 35 28 45 41 10 12 32 29 49 38 16 8 55 41 86
72 31 31 77 73 102 92 24 19 65 52 90 73 55 46 56 47 100 77 19 14 41 33 48
43 7 9 39 31 70 47 97 50 97 52 -1 47 -86 -5 -112 -14 -152 -53 -14 -14 -21
-15 -36 -6 -17 11 -19 9 -19 -12 0 -15 -11 -31 -32 -46 -18 -12 -48 -42 -67
-66 -18 -24 -39 -44 -45 -44 -25 0 -188 -133 -203 -166 -16 -33 -17 -33 -31
-13 -12 18 -12 23 4 40 26 29 72 129 60 129 -17 0 -47 -43 -96 -140 -44 -86
-48 -90 -173 -188 l-128 -101 -37 16 c-121 50 -165 87 -99 82 85 -6 90 11 12
40 -58 22 -145 28 -145 11 0 -5 11 -10 24 -10 14 0 27 -4 30 -9 9 -14 -47 -20
-69 -7 -30 19 -93 34 -170 41 -38 4 -75 12 -82 17 -17 13 -167 12 -192 -2 -16
-8 -26 -8 -36 0 -7 6 -25 8 -39 4 -36 -9 -32 6 9 39 39 31 38 47 -3 47 -37 0
-61 -23 -78 -71 -6 -17 -109 -69 -137 -69 -11 0 -32 -8 -48 -17 -33 -20 -34
-19 -44 27 -7 32 -6 34 10 20 15 -12 19 -11 36 10 11 14 24 34 30 44 10 17 9
18 -22 12 -44 -9 -82 -34 -75 -51 3 -8 -4 -25 -15 -38 -24 -31 -24 -54 -1 -60
11 -3 7 -5 -10 -6 -15 0 -30 -5 -33 -11 -3 -5 -15 -10 -26 -10 -12 0 -23 -10
-29 -25 -5 -14 -14 -25 -20 -25 -6 0 -24 -13 -42 -30 -17 -16 -34 -30 -38 -30
-10 0 -139 -133 -179 -184 -17 -21 -31 -45 -31 -53 0 -15 -34 -10 -88 15 -25
11 -36 12 -45 3 -8 -8 -14 -3 -25 22 -13 31 -14 31 -28 13 -16 -22 -15 -23
-37 24 -10 22 -17 28 -17 17 0 -10 -3 -17 -7 -15 -5 2 -29 14 -54 26 -25 12
-54 30 -64 42 -10 11 -24 20 -32 20 -7 0 -13 9 -13 20 0 24 15 25 54 5 40 -21
44 -12 10 30 -16 20 -36 49 -45 66 -9 16 -22 36 -30 45 -11 13 -10 17 2 25 8
5 21 6 29 3 8 -4 40 -5 70 -3 127 6 369 0 388 -10 34 -18 75 -13 106 14 16 13
51 39 77 56 28 18 49 39 49 49 0 13 6 16 26 12 24 -4 25 -3 13 17 -8 11 -17
21 -21 21 -5 0 -8 6 -8 14 0 7 -7 19 -15 26 -23 19 -18 40 10 40 33 0 77 -48
72 -77 -6 -32 20 -30 35 2 6 14 15 25 20 25 4 0 8 6 8 13 0 13 39 41 47 34 2
-3 -3 -17 -13 -31 -26 -41 -9 -42 26 -2 l32 36 142 0 c310 0 527 -40 749 -136
43 -19 83 -34 90 -34 7 0 33 17 58 38 39 31 225 178 462 366 124 97 137 109
137 124 0 8 -37 54 -83 101 -170 177 -208 354 -129 608 38 120 162 317 285
451 49 54 53 62 71 149 10 51 25 98 33 104 10 9 28 8 76 -4 l62 -15 -57 -1
c-59 -1 -73 -12 -40 -30 14 -9 13 -10 -10 -11 -31 0 -37 -15 -41 -90 -2 -48
15 -62 36 -29 8 13 6 21 -8 35 -18 19 -18 19 17 24 27 4 45 17 78 55 24 28 48
53 53 57 16 10 -12 58 -40 71 -32 14 -11 37 34 37 28 0 33 -3 25 -13 -8 -10 0
-18 34 -36 49 -27 62 -24 44 9 -8 15 -15 19 -19 11 -5 -8 -13 -6 -25 8 -17 19
-17 20 3 33 48 30 20 33 -86 12 l-33 -6 0 83 c0 96 -7 130 -24 123 -13 -5 -96
98 -96 119 0 6 -22 -10 -48 -36 l-49 -48 -63 76 c-34 41 -69 75 -76 75 -7 0
-29 -23 -49 -50 -21 -28 -39 -49 -42 -46 -7 6 22 59 53 95 22 27 23 32 9 37
-8 4 -151 4 -316 1 l-300 -5 -26 29 -26 29 -34 -40 c-32 -37 -37 -39 -76 -34
-49 6 -75 -9 -79 -45 -3 -26 -1 -27 87 -47 l30 -7 -30 -8 c-16 -5 -49 -6 -73
-3 -37 6 -44 10 -49 35 -7 39 -39 66 -61 53 -12 -8 -23 -7 -42 3 -14 7 -37 18
-52 23 -26 9 -26 11 -21 63 5 49 3 56 -16 66 -17 10 -21 21 -21 60 0 39 -6 56
-34 93 -19 25 -52 52 -76 63 -39 18 -43 18 -51 2 -14 -24 -22 -21 -43 16 -29
50 -57 77 -81 77 -11 0 -27 6 -34 13 -11 10 -13 6 -8 -20 6 -28 4 -33 -12 -33
-11 0 -26 -3 -34 -6 -10 -3 -15 0 -14 12 1 10 -19 33 -48 56 -54 41 -71 47
-61 23 6 -18 -24 -85 -39 -84 -5 0 -19 4 -30 9 -19 8 -19 9 3 9 19 1 42 32 42
57 0 11 -55 2 -92 -16 -23 -11 -53 -20 -67 -20 -48 0 -105 -22 -144 -55 -21
-18 -58 -43 -82 -56 -48 -26 -54 -45 -12 -42 37 2 46 -31 16 -63 -31 -33 -49
-31 -49 7 0 37 -16 69 -34 69 -8 0 -22 -29 -35 -68 -24 -78 -26 -99 -8 -105 9
-3 9 -9 -1 -26 -7 -12 -10 -27 -6 -33 5 -7 10 -3 16 11 10 29 33 22 32 -10 -1
-13 -9 -80 -20 -148 -18 -128 -24 -131 -37 -23 -5 43 -3 52 10 52 12 0 14 7 9
32 -9 43 -13 45 -39 18 -18 -20 -22 -21 -25 -9 -2 12 -21 18 -77 22 -68 5 -79
9 -117 41 -23 20 -47 34 -54 32 -6 -2 -21 2 -32 10 -17 12 -21 12 -26 -3 -5
-12 -9 -14 -18 -5 -8 8 -9 15 -2 22 14 14 5 70 -10 70 -7 0 -23 -11 -36 -25
-13 -14 -31 -25 -39 -25 -10 0 0 15 27 41 23 22 40 44 37 49 -6 9 -81 6 -137
-6 -18 -4 -33 0 -44 10 -33 33 -94 33 -94 -1 0 -13 3 -14 12 -5 14 14 38 16
38 3 0 -5 -9 -12 -19 -16 -11 -3 -18 -12 -15 -19 7 -18 -77 -30 -88 -13 -13
20 -9 27 17 27 14 0 25 -5 25 -12 0 -9 3 -9 11 -1 7 7 9 19 6 27 -7 18 -52 22
-63 5 -4 -8 -27 -9 -68 -5 -33 4 -106 8 -161 9 l-100 2 3 42 c2 22 -2 44 -7
48 -15 9 -13 47 4 69 8 11 15 27 15 36 0 9 8 32 17 51 19 38 20 85 2 176 l-12
62 39 44 c21 24 57 54 79 67 22 13 63 43 91 67 28 23 56 43 62 43 6 0 34 21
64 46 29 25 76 56 104 70 63 30 144 113 144 148 0 35 -10 56 -27 56 -12 0 -13
-3 -3 -14 16 -20 5 -37 -55 -82 -27 -21 -56 -46 -63 -56 -7 -10 -18 -18 -24
-18 -5 0 -30 -20 -54 -45 -50 -51 -80 -52 -70 -3 5 28 5 28 -18 12 -14 -8 -27
-22 -30 -30 -3 -8 -12 -14 -20 -14 -19 0 -113 -55 -146 -85 -14 -12 -47 -34
-75 -49 -45 -24 -50 -24 -59 -9 -7 13 -3 22 19 38 76 54 162 120 180 136 36
34 102 84 134 101 35 19 42 43 11 35 -23 -6 -26 5 -6 22 8 6 27 8 46 4 30 -6
33 -4 28 15 -4 13 1 27 14 38 22 21 18 57 -12 89 -10 11 -27 36 -37 55 -15 28
-39 45 -126 88 -151 76 -165 65 -44 -33 54 -44 100 -90 103 -101 3 -12 -4 -40
-15 -61 -20 -40 -83 -103 -102 -103 -6 0 -36 -15 -67 -34 -32 -19 -75 -40 -97
-46 -22 -7 -51 -17 -65 -23 -77 -31 -127 -47 -146 -47 -13 0 -25 -10 -33 -26
-14 -31 -36 -27 -36 7 0 21 -7 25 -50 31 -28 5 -58 12 -67 18 -9 5 -51 9 -92
8 -73 0 -76 -2 -76 -24 0 -12 5 -26 10 -29 8 -5 7 -11 -1 -21 -14 -17 -29 -9
-29 16 0 21 -23 33 -38 18 -14 -14 -50 -1 -57 22 -5 15 -17 18 -77 19 -39 0
-76 -3 -82 -8 -6 -5 -33 -12 -60 -16 -70 -10 -79 -14 -65 -32 9 -11 9 -17 0
-26 -10 -9 -17 -6 -35 16 -12 15 -32 27 -44 27 -12 0 -52 14 -89 30 -36 17
-73 30 -82 30 -14 0 -70 27 -191 90 -72 37 -135 125 -120 166 4 11 39 45 76
76 38 31 82 68 98 82 l29 26 -24 0 c-13 0 -35 -7 -49 -15z m117 -509 c15 -13
25 -28 20 -32 -8 -9 -59 26 -65 44 -6 19 15 14 45 -12z m453 9 c0 -8 6 -15 14
-15 24 0 35 -25 40 -86 3 -32 7 -66 11 -75 3 -10 2 -20 -4 -24 -6 -3 -11 -17
-11 -31 0 -22 -2 -23 -22 -12 -13 7 -26 18 -31 25 -16 25 -39 43 -48 38 -15
-10 -10 -37 9 -42 18 -5 58 -50 68 -77 9 -24 -100 39 -131 76 l-26 31 22 20
c15 14 19 27 16 46 -3 16 2 45 14 70 10 24 19 49 19 57 0 9 11 14 30 14 20 0
30 -5 30 -15z m470 -5 c0 -12 6 -33 13 -48 27 -54 51 -152 40 -163 -7 -7 -17
9 -31 49 -12 32 -31 69 -42 82 l-20 23 0 -24 c1 -13 7 -35 15 -49 18 -31 19
-50 2 -50 -7 0 -18 -9 -24 -20 -7 -11 -26 -26 -41 -34 -28 -15 -29 -14 -24 10
3 15 0 24 -8 24 -9 0 -10 15 -6 53 15 123 17 127 42 133 16 4 23 12 20 20 -4
10 4 14 29 14 29 0 35 -4 35 -20z m434 7 c-7 -18 -64 -51 -64 -37 0 14 40 49
57 50 7 0 10 -6 7 -13z m-754 -7 c0 -5 -7 -10 -15 -10 -8 0 -15 5 -15 10 0 6
7 10 15 10 8 0 15 -4 15 -10z m73 -69 c23 -65 22 -81 -8 -114 -32 -34 -49 -35
-42 -2 4 25 4 25 -14 9 -29 -27 -34 -9 -10 41 11 24 21 49 21 54 0 18 19 61
27 61 5 0 16 -22 26 -49z m-523 -103 c0 -6 -7 -5 -15 2 -8 7 -15 17 -15 22 0
6 7 5 15 -2 8 -7 15 -17 15 -22z m1027 5 c-15 -16 -17 -16 -17 -1 0 9 6 18 13
21 20 7 22 -2 4 -20z m-459 -17 c8 -19 8 -27 -2 -35 -15 -13 -26 5 -26 40 0
26 15 24 28 -5z m-618 -15 c13 -25 13 -31 -2 -31 -7 0 -21 12 -31 25 -17 24
-17 25 2 25 11 0 25 -9 31 -19z m1150 11 c0 -13 -39 -46 -46 -39 -12 12 8 47
27 47 10 0 19 -4 19 -8z m-332 -64 c-2 -5 -23 -18 -46 -28 -46 -21 -46 -17 2
43 29 37 30 37 38 16 5 -12 7 -26 6 -31z m-348 -73 c22 -36 37 -105 22 -105
-5 0 -17 10 -28 21 -14 16 -16 23 -6 26 9 4 8 11 -6 31 -10 15 -23 40 -30 55
-11 26 -11 27 7 17 11 -5 29 -25 41 -45z m-250 21 c0 -37 -85 -60 -131 -35
-28 14 -14 29 29 30 20 1 48 5 62 9 37 12 40 11 40 -4z m451 -4 c-5 -10 -17
-24 -25 -32 -19 -15 -21 -37 -3 -43 9 -3 9 -9 1 -23 -26 -44 -37 -17 -25 57 1
4 10 18 22 33 24 30 45 36 30 8z m327 -2 c20 0 32 -5 32 -14 0 -18 -22 -26
-76 -26 -35 0 -44 -4 -44 -17 -1 -10 -7 -3 -16 16 -21 50 -14 61 33 50 21 -5
53 -9 71 -9z m-694 -24 c17 -13 40 -26 52 -30 26 -8 71 -66 51 -66 -8 0 -27
10 -43 23 -32 25 -88 47 -121 47 -26 0 -29 14 -10 35 17 20 36 18 71 -9z m531
4 c8 -13 -42 -63 -55 -55 -5 3 -20 -4 -32 -15 -35 -33 -58 -43 -58 -26 0 15
25 37 90 81 40 27 47 29 55 15z m-587 -157 c74 -23 88 -32 132 -80 28 -30 50
-63 50 -74 0 -24 1 -24 -62 5 -29 14 -87 35 -128 47 -79 24 -150 76 -150 109
0 36 24 35 158 -7z m756 31 c22 -8 20 -22 -8 -59 -28 -36 -85 -66 -161 -84
-27 -7 -74 -24 -103 -38 -29 -14 -55 -23 -59 -20 -10 10 46 95 80 121 32 24
167 74 229 85 3 0 13 -2 22 -5z m-950 -79 c3 -8 1 -15 -4 -15 -6 0 -10 7 -10
15 0 8 2 15 4 15 2 0 6 -7 10 -15z m1007 -18 c-8 -8 -11 -7 -11 4 0 9 3 19 7
23 4 4 9 2 11 -4 3 -7 -1 -17 -7 -23z m29 -59 c37 -78 20 -170 -33 -176 -23
-3 -30 2 -41 29 -12 29 -12 37 5 68 10 20 19 46 19 58 0 19 19 63 27 63 1 0
12 -19 23 -42z m-1035 22 c4 -6 8 -24 10 -40 2 -17 11 -45 20 -64 17 -36 13
-74 -9 -88 -21 -14 -55 -8 -66 11 -31 58 13 233 45 181z m-1675 -107 c0 -13
-3 -23 -7 -23 -18 0 -43 37 -43 63 l0 30 25 -23 c14 -13 25 -34 25 -47z m4362
-6 c-11 -11 -25 -16 -31 -12 -16 9 -3 45 23 66 20 17 21 17 24 -8 2 -16 -4
-34 -16 -46z m-4571 -41 c27 -29 -6 -49 -34 -22 -12 12 -16 85 -7 126 1 3 8
-17 17 -45 8 -27 19 -54 24 -59z m4794 47 c2 -49 -15 -83 -42 -83 -14 0 -18
26 -5 34 4 3 14 27 22 55 7 28 15 49 18 46 2 -2 5 -25 7 -52z m-4701 11 c14
-35 6 -47 -14 -21 -24 30 -25 37 -6 37 8 0 17 -7 20 -16z m4596 8 c0 -5 -9
-17 -20 -27 -20 -18 -25 -11 -14 19 6 17 34 23 34 8z m-4318 -14 c-9 -9 -15
-9 -24 0 -9 9 -7 12 12 12 19 0 21 -3 12 -12z m4030 0 c-9 -9 -15 -9 -24 0 -9
9 -7 12 12 12 19 0 21 -3 12 -12z m-2056 -35 c13 -14 14 -18 3 -22 -25 -8
-119 -93 -119 -108 0 -7 9 -32 21 -55 l21 -41 -35 21 c-18 12 -37 19 -40 15
-9 -8 -47 27 -47 43 0 8 13 20 29 29 16 8 53 42 82 75 28 33 56 60 60 60 4 0
15 -8 25 -17z m116 7 c6 -18 120 -129 139 -135 11 -4 19 -10 19 -14 0 -16 -26
-41 -47 -45 -12 -3 -33 -12 -47 -21 l-26 -17 22 52 21 52 -54 49 c-30 26 -60
48 -66 49 -7 0 -13 6 -13 14 0 22 45 36 52 16z m-2689 -20 c-3 -11 -9 -17 -14
-15 -10 7 -1 35 11 35 5 0 6 -9 3 -20z m5223 -5 c3 -14 14 -31 23 -38 9 -6 21
-27 28 -45 10 -28 9 -34 -4 -39 -21 -8 -43 23 -43 62 0 17 -7 40 -15 51 -17
22 -19 34 -5 34 5 0 12 -11 16 -25z m-5246 -58 c0 -41 -21 -72 -43 -64 -14 5
-15 11 -5 39 9 27 33 58 45 58 2 0 3 -15 3 -33z m470 24 c0 -6 -4 -13 -10 -16
-5 -3 -10 1 -10 9 0 9 5 16 10 16 6 0 10 -4 10 -9z m4330 -7 c0 -8 -4 -12 -10
-9 -5 3 -10 10 -10 16 0 5 5 9 10 9 6 0 10 -7 10 -16z m-4713 -36 c-3 -7 -5
-2 -5 12 0 14 2 19 5 13 2 -7 2 -19 0 -25z m575 6 c28 -14 62 -37 76 -51 l25
-25 -39 -14 c-21 -8 -40 -14 -41 -14 -2 0 -3 -6 -3 -14 0 -13 74 -36 115 -36
8 0 15 -4 15 -10 0 -6 -28 -10 -64 -10 -71 0 -68 -2 -110 88 -9 18 -25 46 -36
62 -40 56 -19 65 62 24z m1743 16 c-17 -27 -123 -58 -147 -44 -8 5 14 17 52
30 73 24 104 29 95 14z m537 -12 c75 -24 91 -44 28 -34 -45 7 -110 35 -110 48
0 11 6 11 82 -14z m1728 8 c0 -8 -18 -35 -40 -61 -22 -25 -44 -63 -50 -85
l-11 -40 -64 0 c-76 0 -86 15 -17 24 26 3 53 10 60 14 20 13 3 42 -29 49 -24
4 -27 8 -19 24 13 24 119 87 148 88 13 1 22 -5 22 -13z m497 -18 c-3 -7 -5 -2
-5 12 0 14 2 19 5 13 2 -7 2 -19 0 -25z m-4927 7 c0 -8 -9 -15 -20 -15 -25 0
-26 17 -2 23 9 3 18 5 20 6 1 0 2 -6 2 -14z m257 -4 c-3 -14 -1 -18 10 -14 24
10 11 -27 -16 -46 -24 -16 -24 -15 -17 13 6 26 5 28 -8 17 -20 -17 -22 0 -4
29 17 26 42 27 35 1z m4289 2 c23 -31 17 -46 -11 -26 -25 19 -33 43 -14 43 7
0 18 -8 25 -17z m255 7 c5 0 9 -5 9 -11 0 -15 -43 -7 -48 10 -3 10 0 12 12 8
10 -4 22 -7 27 -7z m-3021 -61 c0 -9 -8 -27 -19 -40 -59 -76 -78 -183 -44
-242 18 -29 19 -38 8 -47 -10 -8 -17 -6 -30 7 -17 16 -17 15 -10 -15 8 -40 -7
-42 -34 -4 -32 46 -50 108 -41 145 19 74 31 106 50 130 11 14 20 29 20 34 0 5
16 27 36 48 34 38 37 39 50 20 8 -10 14 -26 14 -36z m1286 19 c43 -46 71 -96
94 -168 22 -70 25 -96 10 -105 -5 -3 -10 -16 -10 -27 0 -26 -48 -91 -61 -83
-5 4 -5 13 1 25 16 29 12 35 -11 14 -28 -25 -44 -1 -21 34 8 13 17 48 18 77 3
54 -13 97 -67 181 -15 25 -17 37 -9 58 12 34 20 33 56 -6z m1458 6 c9 -8 16
-20 16 -25 0 -13 -24 -11 -38 3 -14 14 -16 38 -3 38 5 0 17 -7 25 -16z m-4524
-4 c12 -8 12 -10 1 -10 -8 0 -11 -7 -8 -19 2 -10 1 -24 -3 -31 -9 -15 -30 -4
-30 16 0 8 -8 14 -17 14 -15 0 -14 2 3 19 22 23 33 25 54 11z m4822 -10 c17
-16 18 -20 6 -20 -9 0 -18 -9 -21 -21 -7 -25 -32 -20 -32 7 -1 10 -4 24 -8 30
-17 29 25 32 55 4z m-4522 -20 c0 -5 -5 -10 -11 -10 -5 0 -7 5 -4 10 3 6 8 10
11 10 2 0 4 -4 4 -10z m-579 -38 c7 -36 -8 -56 -36 -46 -11 5 -15 13 -10 28 5
18 11 39 14 54 1 2 7 2 13 0 7 -3 15 -19 19 -36z m4769 28 c0 -5 -2 -10 -4
-10 -3 0 -8 5 -11 10 -3 6 -1 10 4 10 6 0 11 -4 11 -10z m599 -21 c12 -27 11
-33 -2 -47 -21 -20 -47 -1 -40 31 13 58 22 61 42 16z m-1259 -44 c10 -12 10
-15 -4 -15 -9 0 -16 7 -16 15 0 8 2 15 4 15 2 0 9 -7 16 -15z m-3825 -4 c3 -6
-3 -15 -14 -20 -14 -8 -20 -7 -24 4 -8 19 26 34 38 16z m1860 -40 c-19 -20
-40 -1 -30 27 6 20 7 20 25 4 18 -14 18 -18 5 -31z m2930 38 c10 -15 -1 -23
-20 -15 -9 3 -13 10 -10 16 8 13 22 13 30 -1z m-3838 -5 c-3 -3 -12 -4 -19 -1
-8 3 -5 6 6 6 11 1 17 -2 13 -5z m1997 -27 c-7 -20 -20 -22 -38 -4 -12 10 -10
14 8 24 24 14 39 4 30 -20z m-2914 -6 c0 -23 -16 -36 -25 -21 -9 14 1 40 15
40 5 0 10 -9 10 -19z m1096 -13 c-11 -15 -16 -18 -16 -7 0 16 21 42 28 34 2
-2 -3 -14 -12 -27z m3618 16 c7 -19 -2 -37 -15 -29 -12 8 -12 45 0 45 5 0 12
-7 15 -16z m-1107 -9 c9 -24 -1 -27 -15 -5 -8 13 -8 20 -2 20 6 0 13 -7 17
-15z m-1627 -88 c-4 -5 -13 6 -19 24 -8 24 -8 35 1 47 11 13 14 9 20 -24 3
-21 3 -43 -2 -47z m770 50 c0 -24 -16 -54 -24 -46 -3 3 -3 22 1 42 6 38 23 41
23 4z m-980 -3 c0 -8 -7 -14 -15 -14 -15 0 -21 21 -9 33 10 9 24 -2 24 -19z
m1190 6 c0 -21 -15 -27 -25 -10 -7 12 2 30 16 30 5 0 9 -9 9 -20z m-2612 -2
c-6 -18 -28 -21 -28 -4 0 9 7 16 16 16 9 0 14 -5 12 -12z m4022 -4 c0 -17 -22
-14 -28 4 -2 7 3 12 12 12 9 0 16 -7 16 -16z m-2265 -48 c-9 -53 -14 -60 -31
-45 -17 14 -19 70 -3 86 24 24 41 3 34 -41z m535 2 c0 -61 -14 -79 -29 -37
-17 50 -14 79 9 79 17 0 20 -7 20 -42z m-2270 6 c0 -9 -5 -14 -12 -12 -18 6
-21 28 -4 28 9 0 16 -7 16 -16z m3974 1 c-4 -8 -10 -15 -15 -15 -5 0 -9 7 -9
15 0 8 7 15 15 15 9 0 12 -6 9 -15z m-2144 -10 c15 -18 4 -115 -14 -115 -18 0
-38 87 -26 110 13 24 23 25 40 5z m344 -2 c10 -24 -4 -100 -19 -113 -11 -9
-15 -4 -20 27 -3 21 -8 46 -10 56 -3 17 19 47 35 47 4 0 11 -8 14 -17z m-2850
-1 c8 -13 -17 -103 -28 -99 -6 3 -9 11 -7 18 2 8 6 31 8 52 5 35 16 47 27 29z
m204 -10 c2 -7 -3 -12 -12 -12 -9 0 -16 7 -16 16 0 17 22 14 28 -4z m1839 12
c-3 -3 -12 -4 -19 -1 -8 3 -5 6 6 6 11 1 17 -2 13 -5z m1263 2 c0 -2 -7 -6
-15 -10 -8 -3 -15 -1 -15 4 0 6 7 10 15 10 8 0 15 -2 15 -4z m2020 -13 c0 -10
3 -35 6 -55 4 -22 3 -38 -3 -38 -11 0 -34 90 -27 102 9 14 24 8 24 -9z m-6015
-3 c17 -7 14 -9 -13 -9 -20 -1 -31 3 -27 9 7 12 13 12 40 0z m175 0 c0 -5 -12
-10 -27 -9 l-28 1 25 8 c14 4 26 8 28 9 1 1 2 -3 2 -9z m6535 0 c4 -6 -6 -10
-22 -9 -25 0 -26 1 -8 9 11 5 21 9 22 9 1 1 5 -3 8 -9z m-172 -7 c-7 -2 -19
-2 -25 0 -7 3 -2 5 12 5 14 0 19 -2 13 -5z m-3225 -54 c2 -32 -2 -50 -12 -59
-13 -10 -17 -10 -20 1 -2 8 -9 29 -15 47 -13 41 -5 64 23 60 17 -2 22 -11 24
-49z m115 2 c-2 -42 -18 -75 -33 -66 -4 3 -11 21 -14 40 -8 41 8 78 32 73 13
-3 17 -13 15 -47z m-4164 3 l31 -35 -29 -30 c-16 -16 -34 -29 -39 -29 -16 0
-52 37 -52 54 0 18 39 76 51 76 4 0 21 -16 38 -36z m1742 26 c1 -5 2 -14 3
-19 0 -5 4 -12 8 -16 8 -8 -20 -55 -32 -55 -11 0 -23 76 -15 90 8 13 35 13 36
0z m4704 1 c7 -13 -5 -91 -15 -91 -4 0 -15 12 -25 26 -13 20 -14 28 -5 34 6 4
11 10 11 14 -3 20 1 26 13 26 8 0 17 -4 21 -9z m1773 -27 c21 -32 22 -40 11
-60 -18 -34 -47 -40 -70 -15 -11 12 -24 21 -29 21 -6 0 -10 4 -10 10 0 11 59
80 69 80 3 0 17 -17 29 -36z m-4511 -6 c-3 -8 -6 -5 -6 6 -1 11 2 17 5 13 3
-3 4 -12 1 -19z m83 -18 c20 -39 19 -67 -1 -54 -14 8 -40 75 -33 85 9 15 13
11 34 -31z m608 -16 c-14 -30 -38 -44 -38 -22 0 7 10 29 22 48 17 27 23 31 26
18 2 -10 -3 -30 -10 -44z m72 46 c0 -5 -5 -10 -11 -10 -5 0 -7 5 -4 10 3 6 8
10 11 10 2 0 4 -4 4 -10z m-4230 -9 c0 -5 -7 -12 -16 -15 -14 -5 -15 -4 -4 9
14 17 20 19 20 6z m-30 -35 c0 -2 -7 -9 -15 -16 -12 -10 -15 -10 -15 4 0 9 7
16 15 16 8 0 15 -2 15 -4z m3689 -56 c37 -70 38 -80 10 -80 -22 0 -42 38 -54
103 -11 55 8 46 44 -23z m410 15 c-10 -56 -24 -81 -49 -95 -29 -16 -27 12 7
82 35 71 54 77 42 13z m3661 35 c0 -5 -4 -10 -9 -10 -6 0 -13 5 -16 10 -3 6 1
10 9 10 9 0 16 -4 16 -10z m-6567 -25 c-6 -17 -25 -15 -31 3 -2 7 5 12 17 12
14 0 19 -5 14 -15z m5375 3 c-3 -7 -11 -13 -18 -13 -7 0 -15 6 -17 13 -3 7 4
12 17 12 13 0 20 -5 18 -12z m-6864 -20 c9 -12 16 -30 16 -39 0 -22 -67 -122
-74 -111 -7 12 -1 133 9 155 10 23 31 21 49 -5z m4850 0 c19 4 19 3 5 -19 -19
-29 -85 -67 -96 -55 -4 4 -1 13 7 19 9 7 14 21 12 31 -6 26 28 52 43 33 5 -7
19 -11 29 -9z m3520 6 c3 -9 6 -55 5 -102 -1 -48 -4 -78 -7 -67 -10 30 -45 85
-54 85 -13 0 -9 58 4 80 15 24 43 26 52 4z m-4814 -9 c7 -8 10 -21 7 -29 -3
-7 0 -19 6 -25 19 -19 0 -23 -31 -7 -55 28 -85 74 -42 63 11 -3 20 -1 20 4 0
14 26 10 40 -6z m-1300 -93 c13 -58 7 -102 -15 -102 -29 0 -51 173 -22 183 14
5 20 -8 37 -81z m1826 56 c9 -18 25 -43 35 -56 19 -25 16 -52 -7 -52 -14 0
-47 64 -60 116 -9 35 13 30 32 -8z m204 13 c0 -31 -42 -121 -57 -121 -27 0
-24 29 6 74 17 24 31 49 31 55 0 6 5 11 10 11 6 0 10 -8 10 -19z m1827 -65
c-3 -39 -8 -79 -12 -88 -9 -22 -31 -23 -39 -2 -10 25 -7 84 4 84 6 0 10 13 10
29 0 42 9 61 27 54 13 -5 15 -19 10 -77z m-4632 64 c3 -5 1 -10 -4 -10 -6 0
-11 5 -11 10 0 6 2 10 4 10 3 0 8 -4 11 -10z m405 -69 c12 -25 18 -59 18 -110
1 -65 -1 -72 -11 -50 -17 31 -50 120 -53 138 -2 8 -5 25 -9 38 -14 58 22 47
55 -16z m4603 12 c-6 -15 -16 -48 -24 -73 -7 -25 -23 -69 -36 -98 -13 -29 -21
-57 -18 -62 7 -12 -12 -23 -26 -15 -7 5 -4 14 7 26 13 14 20 44 24 102 5 78
27 142 54 159 19 12 29 -9 19 -39z m-4972 -37 c4 -15 4 -37 0 -48 -7 -19 -9
-17 -25 16 -18 39 -15 71 6 64 7 -3 15 -17 19 -32z m5324 24 c7 -12 -16 -80
-27 -80 -10 0 -11 74 -1 83 9 10 21 9 28 -3z m-323 -73 c-6 -12 -13 -29 -15
-37 -3 -9 -6 -6 -6 8 -1 26 18 67 26 58 4 -3 1 -16 -5 -29z m-4693 -32 l0 -20
-9 20 c-5 11 -9 29 -9 40 l0 20 9 -20 c5 -11 9 -29 9 -40z m-292 -27 c-3 -8
-6 -5 -6 6 -1 11 2 17 5 13 3 -3 4 -12 1 -19z m4950 -20 c-3 -8 -6 -5 -6 6 -1
11 2 17 5 13 3 -3 4 -12 1 -19z m-2449 -14 c21 -20 22 -24 6 -16 -22 11 -51
42 -40 42 4 0 19 -12 34 -26z m-1789 -66 c-19 -35 -24 -3 -8 46 l14 41 3 -32
c2 -18 -2 -42 -9 -55z m3850 -2 c1 -15 -2 -16 -14 -6 -9 8 -15 28 -14 54 l1
41 13 -35 c7 -19 14 -43 14 -54z m-4519 12 c0 -22 -23 -23 -45 -2 -15 15 -15
18 2 36 16 18 18 18 30 2 7 -10 13 -26 13 -36z m5217 1 c-14 -23 -47 -25 -47
-3 0 8 5 24 11 35 10 19 12 20 29 4 16 -14 17 -20 7 -36z m-2692 10 c-7 -10
-35 -1 -35 11 0 5 9 6 20 3 11 -3 17 -9 15 -14z m-2161 -20 c-10 -16 -24 -9
-24 12 0 18 2 19 15 9 8 -7 12 -16 9 -21z m2321 21 c-3 -5 -13 -10 -21 -10 -8
0 -12 5 -9 10 3 6 13 10 21 10 8 0 12 -4 9 -10z m-575 -57 c17 -7 28 -9 55
-12 17 -1 18 -3 5 -11 -11 -7 -6 -10 20 -10 21 0 30 -3 23 -8 -8 -5 8 -20 50
-45 77 -45 94 -60 141 -121 64 -85 84 -149 92 -296 2 -56 1 -78 -5 -65 -5 11
-10 34 -10 50 -2 56 -29 163 -57 222 -40 84 -118 162 -201 200 -116 52 -122
53 -404 51 l-264 -2 255 -6 c260 -6 279 -8 370 -52 102 -49 197 -143 236 -234
9 -21 21 -48 27 -59 13 -26 11 -258 -4 -304 -16 -50 -22 -54 -49 -31 -13 11
-28 20 -34 20 -6 0 -5 -4 3 -9 11 -7 12 -17 4 -50 -6 -23 -7 -43 -3 -46 21
-13 16 -57 -9 -88 -87 -105 -194 -175 -287 -184 -30 -3 -57 -10 -60 -14 -10
-16 -44 -10 -38 6 4 8 13 15 21 15 13 0 59 19 149 61 39 18 104 72 104 85 0 3
-19 -9 -42 -27 -98 -78 -124 -85 -345 -88 -59 -1 -68 -11 -23 -28 22 -8 38 -8
67 2 40 14 60 7 50 -19 -6 -14 -33 -16 -190 -16 -155 0 -187 -2 -198 -16 -7
-8 -25 -22 -41 -30 l-28 -15 0 43 c0 32 6 49 27 70 14 15 24 31 20 34 -4 4
-16 -3 -27 -16 -35 -40 -35 -12 0 31 30 38 38 63 39 132 1 18 6 27 17 27 15 0
16 -11 11 -85 -4 -71 -10 -93 -32 -126 -34 -52 -20 -71 21 -28 29 30 29 30 27
146 -2 104 0 118 20 147 12 17 27 34 32 38 7 5 6 8 0 8 -6 0 -30 -18 -54 -40
-23 -22 -45 -40 -47 -40 -11 0 -2 20 20 41 13 13 33 41 45 62 19 34 20 38 4
35 -17 -3 -18 15 -20 262 -2 146 -5 279 -8 297 -6 32 -28 63 -46 63 -13 0 -11
-31 4 -49 30 -36 37 -100 37 -349 0 -252 -3 -282 -24 -282 -8 0 -11 77 -11
283 0 306 -8 367 -48 367 -17 0 -19 5 -14 40 3 22 1 43 -4 46 -16 10 -10 23
14 26 40 6 602 -2 617 -9z m3492 -12 c-2 -12 1 -28 6 -34 5 -7 42 -75 82 -152
40 -77 106 -204 146 -281 41 -78 74 -147 74 -154 0 -28 -30 14 -80 113 -29 56
-65 125 -80 152 -133 243 -162 295 -171 301 -23 14 -17 -7 24 -87 24 -46 83
-160 132 -254 48 -93 91 -174 96 -179 16 -18 9 -27 -13 -20 -23 7 -23 6 -4
-14 10 -12 27 -24 36 -27 10 -3 20 -13 23 -23 3 -9 26 -55 52 -101 30 -57 42
-88 35 -95 -11 -11 15 -46 35 -46 6 0 21 -21 33 -47 46 -100 84 -153 109 -153
7 0 13 -11 13 -24 0 -19 -4 -23 -19 -19 -11 3 -21 13 -24 24 -3 11 -14 19 -27
19 -12 0 -35 11 -52 25 -16 14 -36 25 -44 25 -7 0 -21 -11 -30 -25 -9 -14 -21
-25 -26 -25 -6 0 -19 -11 -30 -25 -11 -14 -29 -25 -40 -25 -18 0 -20 5 -15 38
4 30 -4 54 -39 123 -44 89 -49 126 -8 65 21 -30 49 -88 81 -166 l10 -25 12 23
c11 20 5 36 -43 133 -31 60 -56 119 -56 131 0 19 -4 20 -62 14 -65 -7 -222
-16 -363 -20 l-80 -3 -52 -103 c-29 -57 -53 -107 -53 -111 0 -13 46 -59 59
-59 6 0 11 -9 11 -20 0 -22 -1 -23 -24 -14 -9 3 -16 15 -16 25 0 21 1 20 -108
21 -66 1 -76 -2 -101 -26 -15 -14 -34 -26 -42 -26 -24 0 -17 84 10 120 11 16
21 37 21 47 0 11 -6 6 -16 -14 -9 -18 -23 -33 -31 -33 -13 0 -13 4 2 26 9 14
31 51 48 83 16 31 34 58 39 60 5 2 23 18 40 37 52 56 57 39 15 -43 -22 -43
-47 -91 -55 -108 -8 -16 -23 -42 -34 -57 -10 -14 -18 -39 -18 -55 l0 -28 20
25 c22 28 140 251 154 290 10 30 56 81 66 75 4 -3 14 3 21 12 13 15 11 16 -14
9 l-28 -7 17 33 c19 37 51 68 69 68 7 0 28 14 46 31 25 24 38 29 58 24 14 -4
28 -9 31 -11 5 -5 -34 -84 -82 -167 -15 -26 -28 -54 -28 -61 0 -34 71 -25 144
18 35 20 58 26 105 26 53 0 161 17 161 25 0 2 -17 32 -38 66 -116 192 -151
282 -117 295 19 8 19 30 0 38 -25 9 -43 -4 -50 -37 -4 -24 -62 -154 -83 -187
-2 -2 -12 1 -22 8 -33 20 -61 14 -102 -24 -22 -19 -42 -34 -44 -31 -2 2 49
109 114 238 158 317 154 309 138 309 -13 0 -43 -56 -208 -385 -87 -172 -115
-215 -144 -215 -7 0 -17 -8 -23 -17 -5 -10 -12 -15 -16 -12 -5 6 322 667 344
692 5 7 34 12 68 11 54 -1 58 -2 55 -23z m-6239 3 c-3 -9 5 -26 19 -42 14 -15
82 -101 153 -192 71 -91 130 -167 132 -170 5 -6 46 41 138 159 28 36 59 74 70
86 11 12 38 45 60 73 39 51 65 66 65 38 0 -8 -4 -18 -10 -21 -5 -3 -75 -85
-155 -181 -80 -95 -150 -174 -155 -174 -21 0 -85 69 -200 215 -65 83 -128 156
-139 163 -14 8 -61 11 -148 10 l-128 -2 123 -5 c138 -7 117 5 214 -121 78
-101 153 -195 171 -215 10 -11 35 -41 55 -67 20 -27 41 -48 47 -47 8 0 216
254 306 373 20 26 29 32 38 23 6 -6 11 -17 11 -24 0 -7 9 -22 20 -33 11 -11
20 -31 20 -44 0 -19 -4 -22 -23 -19 -17 3 -28 -2 -41 -21 -9 -15 -46 -62 -81
-106 -36 -44 -65 -87 -65 -95 0 -8 -6 -18 -13 -22 -7 -4 -31 -33 -52 -63 -52
-72 -77 -100 -87 -100 -8 0 26 57 42 70 10 9 52 70 47 70 -2 0 -33 -27 -67
-61 -57 -55 -62 -63 -57 -94 3 -18 2 -37 -3 -41 -5 -5 -10 -20 -12 -34 l-3
-25 -23 25 c-12 13 -26 38 -31 56 -14 50 -70 127 -84 115 -14 -10 -79 68 -81
97 -1 9 -7 26 -13 37 -11 17 -14 18 -23 5 -8 -11 -9 -8 -4 15 4 21 3 26 -4 16
-9 -12 -12 -12 -24 0 -42 44 -98 124 -98 141 0 14 -6 19 -22 16 -15 -2 -21 -9
-19 -18 12 -40 12 -204 1 -226 -9 -16 -10 -27 -3 -36 6 -7 14 -32 18 -55 4
-24 11 -45 16 -49 5 -3 9 -18 9 -34 0 -16 5 -32 10 -35 6 -3 10 -14 10 -23 0
-11 -9 -4 -23 18 l-22 35 -5 -75 c-8 -112 -3 -282 10 -315 14 -36 48 -75 67
-75 7 0 13 -9 13 -21 0 -14 -5 -19 -17 -17 -10 2 -16 7 -15 12 8 19 -27 26
-126 26 -83 0 -104 -3 -109 -15 -6 -17 -62 -50 -64 -38 -6 48 5 101 26 123 21
24 23 32 21 150 l-1 126 21 -21 c12 -12 25 -33 29 -46 4 -13 13 -31 20 -39 7
-8 15 -22 18 -30 3 -8 6 -3 6 13 1 15 -8 44 -19 64 -11 21 -20 43 -20 50 0 6
-8 18 -18 25 -12 8 -21 32 -26 66 -4 29 -9 59 -13 68 -5 14 -3 15 16 5 12 -7
25 -20 28 -29 14 -42 52 -112 57 -104 8 13 -11 82 -28 101 -9 10 -16 23 -16
29 0 6 -10 18 -22 27 -22 15 -23 20 -24 214 -2 207 -6 241 -30 241 -10 0 -14
14 -14 54 0 30 -3 61 -6 70 -5 14 14 16 180 16 164 0 185 -2 179 -16z m935 -1
c5 -10 12 -34 16 -53 5 -29 2 -39 -15 -53 -21 -18 -21 -18 -14 12 7 34 0 37
-37 21 -23 -11 -23 -12 -23 -220 0 -116 4 -210 8 -210 5 0 5 -5 2 -10 -4 -6
-1 -33 5 -60 9 -39 9 -61 0 -100 -14 -60 -16 -324 -2 -360 12 -31 46 -70 61
-70 6 0 11 -11 11 -24 0 -19 -4 -23 -21 -19 -11 3 -18 11 -15 19 9 23 -13 27
-123 25 -89 -1 -108 -4 -121 -20 -20 -23 -58 -43 -63 -34 -13 25 -5 82 14 107
12 15 18 30 14 34 -4 4 -10 1 -12 -5 -5 -14 -23 -18 -23 -5 0 4 11 19 25 34
14 15 25 37 25 50 0 36 11 68 21 62 17 -10 10 -113 -11 -154 -27 -53 -27 -75
0 -58 33 21 43 72 36 171 -6 80 -5 92 12 111 11 11 23 32 27 46 8 25 8 25 -14
6 -25 -22 -26 -21 -34 21 -6 31 11 63 34 63 5 0 9 11 9 25 0 26 15 58 38 83
22 25 34 52 21 52 -14 0 -78 -71 -79 -86 0 -7 -6 -14 -14 -17 -8 -3 -16 -16
-18 -28 -2 -12 -9 -24 -15 -27 -15 -4 -18 109 -7 216 10 91 24 64 24 -45 0
-53 3 -93 7 -90 7 8 9 44 11 225 2 101 5 133 14 130 7 -3 16 -23 20 -46 8 -48
15 -62 29 -62 12 0 7 41 -15 120 -9 30 -16 71 -16 91 0 28 -5 38 -20 42 -12 3
-20 14 -20 26 0 20 6 21 108 23 l107 2 -115 5 c-110 6 -115 7 -118 29 -3 22
-2 22 127 22 114 0 131 -2 139 -17z m330 -10 c3 -22 0 -23 -60 -25 l-63 -1 55
-6 c30 -3 54 -9 53 -13 -2 -5 -3 -13 -3 -18 0 -6 -8 -10 -17 -8 -20 3 -20 2
-9 -63 7 -42 10 -45 39 -46 l32 -1 0 72 0 71 300 5 300 5 -298 3 -298 2 3 23
3 22 326 3 326 2 -14 -45 c-9 -25 -19 -42 -24 -39 -16 9 -27 -41 -19 -85 4
-23 15 -48 25 -55 27 -20 13 -38 -30 -41 -46 -3 -65 8 -65 38 0 19 1 19 20 2
10 -9 26 -15 35 -11 14 5 13 9 -4 28 -19 20 -22 26 -20 45 0 3 -26 17 -58 31
-55 23 -65 24 -233 20 -147 -3 -179 -6 -202 -22 l-27 -18 6 -104 c4 -75 3
-104 -5 -104 -15 0 -16 -36 -2 -45 6 -3 10 -44 10 -91 0 -67 3 -84 15 -84 20
0 85 32 85 42 0 4 78 8 174 8 113 0 177 4 181 11 4 6 5 11 4 12 -2 2 -94 0
-204 -3 -110 -3 -202 -4 -203 -3 -2 1 4 13 15 27 l18 25 228 1 c222 0 227 0
217 -19 -5 -11 -10 -33 -10 -49 0 -19 -11 -41 -29 -61 -28 -30 -79 -57 -89
-47 -3 3 6 10 19 15 29 10 79 59 79 76 0 20 -13 26 -29 12 -17 -14 -95 -48
-146 -64 -16 -5 -29 -15 -28 -21 4 -17 -17 -15 -23 3 -5 11 -24 15 -80 15 -43
0 -74 4 -74 10 0 6 5 10 12 10 6 0 8 3 4 7 -4 5 -14 0 -21 -10 -9 -12 -30 -19
-66 -22 l-53 -3 3 -157 c3 -173 3 -176 38 -223 43 -58 72 -67 219 -67 149 1
229 17 271 53 l28 24 -30 -5 c-16 -3 -57 -15 -90 -27 -46 -17 -83 -22 -170
-23 -125 -1 -162 13 -202 73 -35 51 -27 58 15 15 42 -44 88 -72 99 -61 4 4 1
11 -7 16 -13 8 -13 10 1 10 9 0 19 -3 22 -7 20 -19 207 12 254 43 22 14 143
20 156 8 7 -7 -21 -54 -42 -70 -10 -7 -14 -28 -12 -63 l1 -51 -370 0 c-324 0
-371 -2 -377 -15 -5 -13 -61 -51 -64 -43 0 2 -3 22 -5 44 -4 36 -1 47 26 75
28 32 37 49 24 49 -3 0 -14 -10 -24 -22 -10 -13 -22 -19 -27 -15 -4 5 4 19 19
32 23 20 28 33 35 106 6 68 11 84 26 87 14 3 17 -4 17 -47 0 -70 -17 -148 -42
-198 -26 -50 -18 -66 16 -34 16 15 27 41 34 76 10 61 9 192 -2 217 -5 12 0 25
16 41 76 76 105 117 100 142 -2 14 -11 25 -18 25 -8 0 -14 6 -15 13 0 6 -5 -1
-9 -17 -5 -17 -5 -36 0 -46 7 -12 1 -23 -25 -43 -19 -15 -37 -27 -40 -27 -3 0
-5 17 -4 38 2 21 0 43 -4 49 -4 6 12 48 34 93 23 45 38 84 34 88 -9 10 -45
-36 -45 -58 0 -10 -6 -20 -14 -23 -8 -3 -16 -16 -18 -29 -2 -12 -11 -24 -21
-26 -17 -4 -18 8 -16 200 2 181 0 207 -16 231 -9 15 -24 27 -31 27 -11 0 -14
15 -12 65 l2 66 90 -3 c86 -3 91 -4 94 -25z m2407 -4 c-9 -17 -15 -44 -13 -60
2 -18 -3 -33 -12 -39 -26 -17 -31 -11 -14 15 16 25 16 25 -12 25 -56 0 -56 -1
-55 -212 2 -183 1 -195 -18 -212 -33 -30 -13 -38 25 -10 37 29 46 26 14 -4
-18 -16 -20 -35 -24 -232 -2 -120 0 -235 5 -260 10 -45 51 -100 76 -100 7 0
13 -2 13 -4 0 -2 3 -12 6 -21 5 -13 2 -16 -17 -13 -13 1 -22 7 -21 12 7 18
-26 25 -124 28 -105 2 -144 -5 -144 -27 0 -12 -21 -25 -41 -25 -5 0 -9 21 -9
47 0 34 6 53 22 70 12 13 17 23 11 23 -6 0 -16 -7 -23 -15 -7 -8 -16 -12 -21
-9 -11 7 31 63 48 63 7 1 11 19 11 45 0 25 5 53 10 63 10 17 11 17 18 0 12
-32 -3 -137 -27 -182 -28 -53 -20 -66 18 -31 l28 26 -2 126 c-2 99 1 129 12
141 19 18 19 33 1 33 -8 0 -19 -14 -25 -31 -13 -39 -31 -29 -31 18 0 26 5 36
20 40 15 4 20 14 20 37 1 23 11 42 40 71 43 43 49 55 24 55 -9 0 -18 -9 -21
-20 -3 -11 -14 -20 -24 -20 -17 0 -19 13 -22 193 l-3 192 -1 -222 c-1 -122 -4
-227 -8 -233 -21 -34 -26 19 -24 249 1 247 -1 270 -34 303 -8 7 -16 41 -19 76
l-6 62 194 0 195 0 -16 -31z m571 9 c-3 -13 -6 -39 -6 -58 0 -24 -6 -39 -20
-48 -19 -12 -20 -11 -14 13 5 20 2 25 -13 25 -50 0 -55 -53 -17 -185 25 -89
50 -152 104 -270 15 -33 40 -91 55 -130 66 -164 81 -182 109 -127 7 15 36 88
64 162 28 74 62 161 76 192 38 85 96 257 96 283 0 27 -41 80 -58 74 -7 -3 -4
-20 10 -51 l20 -47 -21 -67 c-12 -36 -31 -87 -43 -113 -42 -94 -49 -112 -73
-176 -44 -116 -78 -185 -92 -185 -12 0 -3 32 29 94 6 12 6 22 -1 29 -8 8 -11
5 -11 -11 0 -12 -5 -22 -11 -22 -10 0 -7 19 14 70 l10 25 8 -25 c7 -19 7 -17
3 12 -2 20 1 47 7 60 23 45 29 58 29 68 0 5 11 33 23 62 13 29 30 69 36 88 22
59 34 80 47 80 28 0 25 35 -5 60 -27 23 -29 30 -28 83 l1 57 203 0 202 0 -17
-32 c-9 -18 -21 -36 -26 -40 -6 -4 -4 -13 4 -23 11 -13 10 -19 -8 -36 -17 -15
-22 -16 -22 -5 0 8 5 18 10 21 19 12 10 25 -18 25 -32 0 -72 -25 -72 -46 0 -8
-3 -14 -8 -14 -4 0 -12 -12 -19 -27 -6 -16 -22 -52 -34 -80 -13 -29 -29 -53
-36 -53 -8 0 -13 -13 -13 -35 0 -36 -33 -114 -54 -127 -6 -4 -11 -24 -12 -45
-1 -20 -6 -39 -13 -41 -6 -2 -11 -8 -11 -13 0 -4 -14 -39 -31 -76 -17 -38 -56
-124 -85 -193 -30 -69 -59 -134 -65 -144 -6 -11 -21 -47 -33 -81 -13 -38 -26
-60 -34 -57 -6 2 -12 8 -12 13 0 6 -9 28 -20 51 -11 22 -17 45 -14 50 9 14
-61 179 -78 186 -4 2 -8 10 -8 18 0 9 -5 12 -10 9 -6 -4 -29 33 -54 85 -40 84
-42 94 -30 118 20 42 28 82 15 82 -6 0 -11 -4 -11 -9 0 -5 -7 -12 -15 -15 -10
-4 -19 3 -25 18 -5 13 -20 35 -34 48 -13 12 -60 95 -104 183 -75 150 -132 233
-132 192 0 -9 12 -33 26 -54 14 -21 50 -90 81 -153 30 -63 58 -122 63 -131 5
-9 33 -70 63 -135 30 -65 86 -184 124 -264 38 -80 87 -182 108 -227 21 -46 42
-83 47 -83 4 0 8 -7 8 -15 0 -8 -8 -15 -17 -15 -12 0 -26 19 -42 58 -14 31
-56 122 -94 202 -38 80 -80 170 -94 200 -34 75 -160 335 -214 444 -24 48 -53
99 -65 111 -15 17 -23 41 -26 89 l-6 66 220 0 220 0 -6 -22z m897 1 c3 -12 3
-43 0 -69 -5 -40 -8 -47 -24 -43 -15 4 -19 15 -19 53 0 27 -3 55 -6 64 -5 12
0 16 19 16 17 0 26 -7 30 -21z m262 -4 c0 -19 -8 -20 -112 -23 l-113 -3 0 26
0 26 113 -3 c104 -3 112 -4 112 -23z m-4785 2 c0 -2 -9 -15 -21 -28 -11 -13
-30 -35 -42 -49 -45 -52 -113 -136 -138 -170 -47 -63 -97 -115 -105 -108 -3 4
6 22 22 41 16 18 38 45 49 59 110 139 212 258 223 258 6 0 12 -2 12 -3z m3695
-17 c3 -5 1 -10 -4 -10 -6 0 -11 5 -11 10 0 6 2 10 4 10 3 0 8 -4 11 -10z
m-1405 -14 c0 -11 -19 -15 -25 -6 -3 5 1 10 9 10 9 0 16 -2 16 -4z m2494 -15
c4 -5 -6 -18 -21 -29 -25 -18 -26 -22 -16 -55 8 -25 7 -42 -2 -63 -6 -16 -15
-41 -18 -56 -6 -22 -4 -26 8 -22 8 4 15 11 15 18 0 6 12 25 26 41 25 29 25 29
20 5 -4 -14 -9 -44 -12 -67 -7 -42 -18 -55 -27 -30 -2 6 -3 4 -1 -6 1 -10 -5
-31 -14 -46 -9 -17 -13 -35 -8 -47 7 -17 10 -16 24 13 8 18 20 34 27 37 16 6
-7 -83 -24 -93 -15 -9 -21 -129 -7 -134 18 -6 -17 -71 -64 -118 -25 -26 -51
-54 -59 -63 -22 -29 -6 -28 25 1 16 16 43 39 59 53 17 14 38 36 48 50 14 20
17 21 17 7 0 -10 -10 -31 -22 -47 -20 -28 -21 -36 -15 -169 7 -156 18 -194 66
-230 36 -28 40 -41 11 -41 -11 0 -20 7 -20 15 0 16 -14 24 -47 29 -10 2 -20
11 -21 22 -2 10 -8 23 -13 29 -5 5 -9 32 -9 60 -1 46 -2 48 -15 31 -8 -11 -15
-30 -15 -42 0 -12 -12 -36 -26 -53 -27 -33 -25 -36 26 -44 14 -3 -8 -4 -49 -4
-62 0 -77 -4 -90 -21 -9 -11 -26 -25 -38 -31 -22 -11 -23 -10 -23 37 0 36 5
54 20 67 11 10 20 25 20 34 -1 14 -2 13 -11 -1 -9 -16 -39 -26 -39 -13 0 15
53 57 59 47 3 -5 7 59 8 144 l1 154 48 50 c49 51 84 98 84 114 0 5 -29 -21
-65 -58 -36 -36 -67 -66 -69 -66 -1 0 -3 113 -3 250 -1 207 2 250 13 250 8 0
15 -1 16 -2 1 -2 4 -102 8 -223 l6 -220 2 228 c1 157 -2 233 -9 246 -7 10 -9
30 -5 44 l6 27 105 0 c57 0 106 -4 109 -9z m-3776 -88 c-10 -2 -26 -2 -35 0
-10 3 -2 5 17 5 19 0 27 -2 18 -5z m2601 -115 c22 -64 27 -74 54 -138 76 -177
97 -232 97 -254 -1 -25 -13 0 -99 202 -34 78 -61 148 -61 155 0 7 -4 17 -9 23
-11 12 -22 86 -12 80 5 -3 18 -34 30 -68z m601 -5 c-11 -17 -11 -17 -6 0 3 10
6 24 7 30 0 9 2 9 5 0 3 -7 0 -20 -6 -30z m-24 -60 c-11 -11 -19 6 -11 24 8
17 8 17 12 0 3 -10 2 -21 -1 -24z m-19 -45 c-3 -7 -5 -2 -5 12 0 14 2 19 5 13
2 -7 2 -19 0 -25z m-20 -45 c-3 -10 -5 -4 -5 12 0 17 2 24 5 18 2 -7 2 -21 0
-30z m-1170 -25 c-3 -7 -5 -2 -5 12 0 14 2 19 5 13 2 -7 2 -19 0 -25z m-3522
-80 c154 -198 178 -228 196 -233 16 -5 28 -25 15 -25 -2 0 -11 -2 -18 -5 -10
-4 -35 22 -74 72 -32 43 -61 80 -65 83 -15 14 -149 193 -149 201 0 21 30 -8
95 -93z m439 -21 c-27 -36 -51 -63 -53 -61 -4 3 51 78 62 82 4 2 7 8 7 13 0
12 23 39 29 33 2 -2 -18 -32 -45 -67z m4226 54 c0 -15 -46 -91 -52 -86 -7 7
34 95 44 95 4 0 8 -4 8 -9z m657 -23 c-3 -8 -6 -5 -6 6 -1 11 2 17 5 13 3 -3
4 -12 1 -19z m866 -106 c30 -54 31 -79 2 -44 -24 27 -57 104 -43 100 6 -2 25
-28 41 -56z m-5083 -56 c0 -64 -7 -86 -26 -86 -18 0 -20 110 -2 128 22 22 28
13 28 -42z m4932 22 c-8 -8 -9 -4 -5 13 4 13 8 18 11 10 2 -7 -1 -18 -6 -23z
m-1466 -50 c-19 -27 -20 -17 -3 31 10 28 13 31 15 13 2 -12 -4 -32 -12 -44z
m-4257 -6 c-13 -16 -31 -39 -39 -51 -15 -22 -40 -29 -40 -11 0 6 4 10 8 10 11
0 42 29 67 63 10 14 21 24 23 22 3 -2 -6 -17 -19 -33z m6193 21 c8 -10 30 -47
49 -83 18 -36 41 -77 51 -92 10 -14 18 -32 18 -39 0 -21 -37 20 -64 71 -14 26
-38 73 -55 104 -30 55 -29 74 1 39z m-769 -43 c-24 -35 -53 -53 -53 -32 0 10
31 55 44 64 28 20 32 4 9 -32z m432 30 c4 -6 15 -8 25 -5 10 3 21 2 24 -3 11
-18 -51 -33 -125 -30 l-74 3 40 22 c43 23 100 30 110 13z m-5565 -104 c-13
-37 -30 -30 -30 11 0 51 22 77 31 36 3 -15 2 -37 -1 -47z m2437 7 c-3 -10 -5
-4 -5 12 0 17 2 24 5 18 2 -7 2 -21 0 -30z m-62 17 c8 -13 -14 -42 -25 -35
-10 6 -1 45 11 45 4 0 11 -5 14 -10z m2685 0 c0 -5 -4 -10 -10 -10 -5 0 -10 5
-10 10 0 6 5 10 10 10 6 0 10 -4 10 -10z m-2650 -106 c0 -8 -4 -14 -10 -14 -5
0 -10 9 -10 21 0 11 5 17 10 14 6 -3 10 -13 10 -21z m3676 -130 c50 -84 23
-84 -29 1 -26 42 -47 78 -47 81 0 16 50 -37 76 -82z m-6810 -21 c26 -26 30
-38 14 -48 -12 -7 -50 71 -49 99 2 18 2 17 6 -3 3 -13 16 -35 29 -48z m-276
48 c0 -15 -38 -56 -45 -49 -4 4 1 18 12 32 18 26 33 33 33 17z m4827 -23 c-3
-7 -5 -2 -5 12 0 14 2 19 5 13 2 -7 2 -19 0 -25z m-1532 -18 c-21 -22 -43 -40
-48 -40 -5 0 10 18 34 40 24 22 46 40 49 40 2 0 -14 -18 -35 -40z m642 18 c-3
-8 -6 -5 -6 6 -1 11 2 17 5 13 3 -3 4 -12 1 -19z m1830 -31 c22 -17 23 -37 3
-37 -11 0 -40 54 -39 72 0 9 2 8 6 -2 4 -8 17 -23 30 -33z m-4491 -34 c-7 -17
-8 -17 -22 1 -8 11 -14 29 -14 40 0 20 0 20 21 -1 15 -14 19 -27 15 -40z
m2698 28 c9 -10 14 -25 10 -35 -5 -14 -10 -12 -25 14 -11 17 -19 33 -19 35 0
11 18 4 34 -14z m-777 -57 c-3 -3 -12 -4 -19 -1 -8 3 -5 6 6 6 11 1 17 -2 13
-5z m3766 -1 c-7 -2 -19 -2 -25 0 -7 3 -2 5 12 5 14 0 19 -2 13 -5z m-4703
-34 c0 -10 -34 -12 -43 -2 -4 3 -2 12 4 20 9 10 15 10 25 2 8 -6 14 -15 14
-20z m2520 11 c0 -13 -28 -25 -38 -16 -3 4 0 11 8 16 20 13 30 12 30 0z
m-1207 -217 c60 -90 207 -220 366 -325 24 -16 61 -18 409 -18 249 0 382 -3
382 -10 0 -6 -9 -27 -20 -47 -28 -52 -25 -71 5 -35 14 17 25 36 25 43 0 7 7
21 17 31 15 17 42 18 425 18 431 0 427 0 393 -44 -24 -31 -19 -56 10 -56 25 0
36 25 13 32 -8 3 -8 9 -1 22 9 16 11 15 22 -12 32 -77 -75 -112 -158 -53 l-29
21 -16 -24 c-15 -24 -19 -24 -193 -30 -98 -3 -189 -6 -203 -7 -14 0 -60 3
-104 8 -58 7 -82 6 -95 -4 -38 -29 -31 -1 15 62 13 17 16 18 24 5 9 -13 13
-11 30 10 27 34 25 43 -7 36 -16 -4 -48 -29 -73 -56 -43 -47 -74 -59 -125 -50
-33 5 -182 -3 -197 -11 -12 -6 -25 -6 -38 1 -13 7 -93 11 -218 10 -320 -1
-1161 -1 -1374 0 -133 1 -204 -2 -219 -10 -15 -9 -28 -9 -43 -2 -21 11 -196
21 -196 12 0 -3 -18 -4 -39 -2 -33 3 -47 12 -80 52 -39 46 -85 70 -103 52 -4
-4 3 -19 17 -32 14 -13 25 -18 25 -12 0 23 20 11 50 -30 33 -46 33 -58 -2 -37
-18 11 -41 12 -98 6 -85 -8 -78 -8 -295 -2 -187 6 -202 9 -210 35 -6 20 -7 19
-49 -5 -71 -42 -156 -26 -156 29 0 29 25 53 36 35 4 -7 2 -15 -4 -17 -23 -7
-12 -32 13 -32 29 0 34 25 10 56 -34 44 -38 44 390 44 392 0 406 -1 425 -20
11 -11 20 -27 20 -35 0 -9 12 -28 26 -42 l26 -26 -7 24 c-4 13 -16 36 -27 51
-11 16 -16 32 -13 38 4 6 143 10 389 10 357 0 385 1 407 18 13 11 52 38 85 60
78 53 236 201 275 258 16 24 31 44 33 44 2 0 15 -17 29 -37z m-2200 -363 c-4
-16 -43 -31 -43 -16 0 2 -3 11 -6 20 -5 12 1 16 24 16 25 0 29 -3 25 -20z
m4397 11 c0 -5 -8 -17 -17 -26 -16 -16 -17 -16 -30 1 -20 27 -16 34 17 34 17
0 30 -4 30 -9z m1630 -106 c-7 -9 -15 -13 -17 -11 -6 6 20 36 26 30 2 -2 -2
-10 -9 -19z m-904 -120 l29 -15 -36 0 c-24 0 -39 5 -43 15 -7 19 13 19 50 0z
m139 -46 c10 -15 2 -19 -23 -12 -12 3 -19 9 -16 14 7 12 31 11 39 -2z m-1741
-81 c-7 -10 -54 37 -54 54 0 7 13 -1 30 -17 16 -15 27 -32 24 -37z m1826 42
c0 -5 -6 -10 -14 -10 -8 0 -18 5 -21 10 -3 6 3 10 14 10 12 0 21 -4 21 -10z
m241 -85 c-21 -19 -44 -35 -50 -35 -18 0 -82 46 -75 53 4 3 21 0 38 -7 33 -13
96 -4 96 14 0 6 7 10 15 10 9 0 -1 -14 -24 -35z"/>
<path d="M4251 6404 c0 -11 3 -14 6 -6 3 7 2 16 -1 19 -3 4 -6 -2 -5 -13z"/>
<path d="M4360 5813 c0 -12 44 -33 69 -33 10 0 43 -9 74 -19 31 -11 59 -16 62
-11 3 4 15 6 28 4 12 -2 -6 10 -41 27 -65 32 -192 53 -192 32z"/>
<path d="M4117 5762 c-14 -15 -16 -45 -15 -192 0 -151 2 -172 14 -155 15 21
16 26 18 200 1 66 6 130 10 143 9 26 -5 29 -27 4z"/>
<path d="M4175 5723 c4 -21 6 -87 4 -148 -2 -60 -3 -166 -3 -235 -1 -88 -5
-127 -13 -133 -10 -6 -9 -13 3 -32 10 -16 13 -32 8 -47 -4 -13 -6 -27 -5 -33
2 -5 3 -54 2 -107 l-2 -98 125 0 c101 0 136 4 178 20 84 31 141 84 183 168 20
39 40 72 44 72 4 0 13 -11 19 -25 6 -14 16 -25 22 -25 17 0 11 15 -19 54 -25
31 -28 41 -21 71 4 19 4 86 -1 150 -9 117 -33 194 -79 243 -9 10 -23 31 -31
47 -9 20 -35 40 -79 62 -64 32 -67 33 -204 33 l-138 0 7 -37z m325 -53 c0 -5
-2 -10 -4 -10 -3 0 -8 5 -11 10 -3 6 -1 10 4 10 6 0 11 -4 11 -10z m87 -73
c49 -53 71 -94 89 -162 26 -95 11 -243 -23 -231 -7 3 -13 1 -13 -4 0 -6 7 -10
15 -10 21 0 19 -10 -12 -72 -69 -136 -184 -208 -335 -208 -43 0 -78 4 -78 9 0
18 47 38 98 40 96 4 222 94 269 191 17 35 17 35 25 10 5 -17 5 -11 2 17 -4 27
-1 49 9 65 23 35 30 112 16 176 -16 79 -39 123 -104 196 -5 6 -17 20 -25 30
-29 38 23 0 67 -47z m-377 -488 c0 -5 -4 -9 -10 -9 -5 0 -10 7 -10 16 0 8 5
12 10 9 6 -3 10 -10 10 -16z m-5 -59 c3 -5 1 -10 -4 -10 -6 0 -11 5 -11 10 0
6 2 10 4 10 3 0 8 -4 11 -10z"/>
<path d="M4601 5118 c-1 -10 -5 -18 -11 -18 -5 0 -10 -5 -10 -10 0 -15 -46
-60 -94 -92 -23 -16 -34 -28 -25 -28 43 0 159 120 146 152 -4 8 -6 7 -6 -4z"/>
<path d="M4418 4953 c7 -3 16 -2 19 1 4 3 -2 6 -13 5 -11 0 -14 -3 -6 -6z"/>
<path d="M4785 5363 c-3 -16 -10 -43 -14 -60 -9 -34 -6 -39 18 -24 17 11 28
111 12 111 -6 0 -13 -12 -16 -27z"/>
<path d="M4731 5288 c0 -49 3 -88 7 -88 4 0 6 33 4 73 -5 107 -10 114 -11 15z"/>
<path d="M4123 5315 c0 -22 2 -30 4 -17 2 12 2 30 0 40 -3 9 -5 -1 -4 -23z"/>
<path d="M4797 5245 c-4 -8 -2 -17 3 -20 6 -4 10 -4 10 -1 0 2 3 11 6 20 3 9
2 16 -4 16 -5 0 -12 -7 -15 -15z"/>
<path d="M4058 5233 c7 -3 16 -2 19 1 4 3 -2 6 -13 5 -11 0 -14 -3 -6 -6z"/>
<path d="M4075 4840 c-18 -20 -17 -20 41 -20 l59 1 -35 19 c-44 24 -43 24 -65
0z"/>
<path d="M7892 5884 c-7 -8 -12 -20 -9 -27 2 -7 9 -2 16 11 15 28 11 36 -7 16z"/>
<path d="M7865 5830 c-3 -5 -1 -10 4 -10 6 0 11 5 11 10 0 6 -2 10 -4 10 -3 0
-8 -4 -11 -10z"/>
<path d="M7845 5790 c-3 -5 -1 -10 4 -10 6 0 11 5 11 10 0 6 -2 10 -4 10 -3 0
-8 -4 -11 -10z"/>
<path d="M7831 5754 c0 -11 3 -14 6 -6 3 7 2 16 -1 19 -3 4 -6 -2 -5 -13z"/>
<path d="M7811 5714 c0 -11 3 -14 6 -6 3 7 2 16 -1 19 -3 4 -6 -2 -5 -13z"/>
<path d="M7791 5678 c-1 -10 -5 -18 -11 -18 -5 0 -10 -8 -10 -17 0 -14 3 -13
16 5 8 12 13 28 11 35 -3 7 -6 5 -6 -5z"/>
<path d="M7750 5599 c0 -5 5 -7 10 -4 6 3 10 8 10 11 0 2 -4 4 -10 4 -5 0 -10
-5 -10 -11z"/>
<path d="M7726 5563 c-3 -10 -9 -24 -12 -30 -3 -7 -1 -13 4 -13 5 0 12 8 16
18 3 9 9 23 12 30 3 6 1 12 -4 12 -5 0 -12 -8 -16 -17z"/>
<path d="M8054 5535 c4 -16 21 -47 37 -69 16 -22 29 -45 29 -50 1 -16 40 -63
40 -49 0 7 -9 29 -21 50 -12 21 -31 56 -42 78 -12 22 -28 47 -36 55 -13 13
-13 11 -7 -15z"/>
<path d="M7701 5494 c0 -11 3 -14 6 -6 3 7 2 16 -1 19 -3 4 -6 -2 -5 -13z"/>
<path d="M8033 5463 c8 -45 127 -247 139 -235 12 12 -19 90 -46 122 -12 14
-35 53 -51 88 -32 70 -51 81 -42 25z"/>
<path d="M7681 5458 c-1 -10 -5 -18 -11 -18 -5 0 -10 -10 -10 -22 0 -21 2 -20
15 6 9 16 14 34 11 40 -2 6 -5 3 -5 -6z"/>
<path d="M7771 5404 c0 -11 3 -14 6 -6 3 7 2 16 -1 19 -3 4 -6 -2 -5 -13z"/>
<path d="M7641 5384 c0 -11 3 -14 6 -6 3 7 2 16 -1 19 -3 4 -6 -2 -5 -13z"/>
<path d="M7616 5343 c-3 -10 -9 -24 -12 -30 -3 -7 -1 -13 4 -13 5 0 12 8 16
18 3 9 9 23 12 30 3 6 1 12 -4 12 -5 0 -12 -8 -16 -17z"/>
<path d="M7781 5298 c-17 -27 -9 -33 13 -9 10 10 13 21 9 24 -5 3 -15 -3 -22
-15z"/>
<path d="M7591 5274 c0 -11 3 -14 6 -6 3 7 2 16 -1 19 -3 4 -6 -2 -5 -13z"/>
<path d="M7681 5224 c0 -11 3 -14 6 -6 3 7 2 16 -1 19 -3 4 -6 -2 -5 -13z"/>
<path d="M8150 5140 c-8 -5 -34 -10 -57 -10 -23 0 -45 -4 -48 -10 -4 -6 6 -10
22 -10 39 0 103 19 103 30 0 12 -1 12 -20 0z"/>
<path d="M7993 5103 c9 -2 23 -2 30 0 6 3 -1 5 -18 5 -16 0 -22 -2 -12 -5z"/>
<path d="M8310 5066 c0 -2 7 -9 15 -16 9 -7 15 -8 15 -2 0 5 -7 12 -15 16 -8
3 -15 4 -15 2z"/>
<path d="M7631 5022 c-13 -25 -14 -72 -2 -72 8 0 22 80 15 88 -1 2 -7 -5 -13
-16z"/>
<path d="M7461 5014 c0 -11 3 -14 6 -6 3 7 2 16 -1 19 -3 4 -6 -2 -5 -13z"/>
<path d="M7436 4985 c-3 -8 -1 -15 4 -15 6 0 10 7 10 15 0 8 -2 15 -4 15 -2 0
-6 -7 -10 -15z"/>
<path d="M7421 4944 c0 -11 3 -14 6 -6 3 7 2 16 -1 19 -3 4 -6 -2 -5 -13z"/>
<path d="M7530 4835 c-17 -20 -8 -27 23 -20 17 5 24 12 20 21 -7 18 -27 18
-43 -1z"/>
<path d="M1460 5816 c0 -9 9 -35 20 -59 17 -36 20 -67 23 -212 l3 -170 2 205
c1 113 -2 210 -6 215 -4 6 -15 16 -24 24 -16 12 -18 11 -18 -3z"/>
<path d="M2362 5686 c-65 -77 -86 -106 -75 -105 7 0 26 21 116 131 14 18 23
39 15 37 -2 0 -27 -28 -56 -63z"/>
<path d="M1604 5725 c-11 -29 2 -33 29 -9 l28 24 -26 0 c-14 0 -28 -7 -31 -15z"/>
<path d="M2188 5472 c-34 -44 -74 -87 -88 -96 -18 -11 -20 -16 -9 -16 9 0 30
12 46 28 42 40 127 151 120 158 -3 3 -34 -30 -69 -74z"/>
<path d="M1891 5424 c0 -11 3 -14 6 -6 3 7 2 16 -1 19 -3 4 -6 -2 -5 -13z"/>
<path d="M1602 5350 c0 -14 2 -19 5 -12 2 6 2 18 0 25 -3 6 -5 1 -5 -13z"/>
<path d="M1580 5219 c0 -21 7 -42 15 -49 13 -11 15 -8 15 17 0 16 -7 38 -15
49 -13 18 -14 17 -15 -17z"/>
<path d="M1580 5073 c0 -34 13 -44 23 -19 3 8 -1 22 -8 33 -13 17 -14 16 -15
-14z"/>
<path d="M1493 4959 c-7 -35 -22 -83 -35 -106 -28 -51 -17 -67 17 -27 32 37
37 55 33 134 l-3 64 -12 -65z"/>
<path d="M2590 5273 c-6 -32 -16 -70 -22 -85 -6 -15 -7 -39 -4 -53 4 -16 1
-34 -9 -48 -8 -12 -15 -30 -15 -40 0 -16 2 -17 15 -7 21 18 27 8 15 -24 -13
-36 -13 -79 2 -111 27 -59 33 -26 37 200 2 124 1 225 -2 225 -3 0 -11 -26 -17
-57z"/>
<path d="M2532 4847 c-28 -30 -20 -37 40 -37 55 0 60 10 19 39 -36 26 -33 26
-59 -2z"/>
<path d="M2898 5813 c4 -10 17 -38 30 -63 19 -39 22 -65 25 -195 2 -118 3
-109 3 41 -1 174 -3 194 -20 213 -24 26 -48 28 -38 4z"/>
<path d="M3058 5685 c-2 -2 -2 -20 0 -40 5 -41 22 -37 22 5 0 27 -11 45 -22
35z"/>
<path d="M2993 5540 c0 -36 2 -50 4 -32 2 17 2 47 0 65 -2 17 -4 3 -4 -33z"/>
<path d="M3037 5572 c-6 -30 0 -45 14 -37 12 8 12 52 0 59 -5 3 -11 -7 -14
-22z"/>
<path d="M2992 5305 c0 -16 2 -22 5 -12 2 9 2 23 0 30 -3 6 -5 -1 -5 -18z"/>
<path d="M3018 5064 c-5 -4 -8 -16 -8 -28 0 -14 3 -17 11 -9 6 6 9 19 7 28 -1
9 -6 13 -10 9z"/>
<path d="M3578 4953 c7 -3 16 -2 19 1 4 3 -2 6 -13 5 -11 0 -14 -3 -6 -6z"/>
<path d="M3548 4933 c7 -3 16 -2 19 1 4 3 -2 6 -13 5 -11 0 -14 -3 -6 -6z"/>
<path d="M3030 4851 c-23 -16 -7 -22 70 -26 68 -3 71 -3 45 11 -37 19 -97 27
-115 15z"/>
<path d="M3565 4849 c-22 -5 -60 -13 -85 -18 -40 -8 -33 -9 51 -10 94 -1 109
4 109 35 0 6 -29 3 -75 -7z"/>
<path d="M5198 5863 c34 -2 90 -2 125 0 34 2 6 3 -63 3 -69 0 -97 -1 -62 -3z"/>
<path d="M5120 5812 c0 -10 6 -26 14 -37 7 -11 18 -33 23 -50 l11 -30 7 27 c4
17 1 39 -10 61 -19 40 -45 56 -45 29z"/>
<path d="M5242 5693 c-6 -12 -5 -31 4 -53 l12 -35 1 53 c1 55 -3 63 -17 35z"/>
<path d="M5238 5219 c-30 -22 -39 -55 -13 -45 11 4 17 -3 21 -24 4 -16 12 -34
19 -40 11 -9 14 3 17 59 3 77 -1 82 -44 50z"/>
<path d="M5246 4835 c-4 -11 2 -15 24 -15 22 0 28 4 24 15 -4 8 -14 15 -24 15
-10 0 -20 -7 -24 -15z"/>
<path d="M5723 5863 c42 -2 112 -2 155 0 42 1 7 3 -78 3 -85 0 -120 -2 -77 -3z"/>
<path d="M6473 5863 c37 -2 97 -2 135 0 37 2 6 3 -68 3 -74 0 -105 -1 -67 -3z"/>
<path d="M5732 5822 c-13 -2 -22 -7 -20 -10 66 -139 113 -222 124 -222 19 0
18 15 -7 85 -13 36 -32 69 -50 84 -37 30 -37 41 1 41 17 0 30 4 30 9 0 10 -45
18 -78 13z"/>
<path d="M5873 5773 c-15 -5 -18 -113 -4 -113 5 0 11 26 13 58 5 67 6 60 -9
55z"/>
<path d="M6542 5760 c-6 -11 -12 -28 -12 -37 0 -12 5 -8 15 11 18 34 16 56 -3
26z"/>
<path d="M6340 5624 c0 -8 5 -12 10 -9 6 4 8 11 5 16 -9 14 -15 11 -15 -7z"/>
<path d="M6320 5580 c0 -5 5 -10 10 -10 6 0 10 5 10 10 0 6 -4 10 -10 10 -5 0
-10 -4 -10 -10z"/>
<path d="M5832 5560 c-11 -17 -10 -20 7 -20 19 0 35 23 24 34 -10 10 -18 7
-31 -14z"/>
<path d="M6281 5477 c-7 -14 -11 -31 -8 -39 3 -7 6 -4 6 9 1 12 6 23 13 25 6
2 9 10 7 17 -3 8 -10 4 -18 -12z"/>
<path d="M6400 5485 c0 -8 7 -15 15 -15 8 0 15 7 15 15 0 8 -7 15 -15 15 -8 0
-15 -7 -15 -15z"/>
<path d="M6251 5394 c0 -11 3 -14 6 -6 3 7 2 16 -1 19 -3 4 -6 -2 -5 -13z"/>
<path d="M6197 4992 c-10 -10 -17 -34 -17 -53 l0 -34 16 35 c9 19 20 43 25 53
12 22 -3 22 -24 -1z"/>
<path d="M7010 5821 c0 -5 9 -7 20 -4 11 3 20 7 20 9 0 2 -9 4 -20 4 -11 0
-20 -4 -20 -9z"/>
<path d="M7087 5773 c-11 -10 -8 -93 3 -93 6 0 10 23 10 50 0 51 -1 55 -13 43z"/>
<path d="M7085 5590 c-3 -5 -1 -10 4 -10 6 0 11 5 11 10 0 6 -2 10 -4 10 -3 0
-8 -4 -11 -10z"/>
<path d="M7091 5449 c-12 -13 -21 -30 -21 -38 0 -10 6 -7 17 9 9 14 21 28 27
32 6 4 8 10 4 13 -3 4 -15 -4 -27 -16z"/>
<path d="M6958 5068 c-4 -159 -5 -164 -32 -205 -37 -56 -30 -78 12 -36 l32 31
0 186 c0 102 -2 186 -4 186 -2 0 -6 -73 -8 -162z"/>
<path d="M4920 4433 c-96 -98 -183 -164 -179 -135 1 4 1 11 0 16 -2 13 -41
-35 -41 -49 0 -7 -7 -15 -15 -19 -8 -3 -15 -10 -15 -16 0 -7 108 -10 325 -10
179 0 325 3 325 8 0 4 -9 15 -20 25 -11 9 -20 23 -20 31 0 8 -7 17 -16 20 -22
8 -26 8 -19 -3 3 -5 1 -12 -5 -16 -5 -3 -10 -2 -10 2 0 5 -12 16 -27 25 -16 9
-68 55 -117 102 -49 47 -91 86 -95 86 -3 0 -35 -30 -71 -67z"/>
<path d="M3745 4180 c-3 -5 -1 -20 6 -32 25 -48 56 -46 33 2 -18 34 -30 44
-39 30z"/>
<path d="M4198 4183 c-32 -3 -48 -9 -48 -18 0 -7 -6 -15 -12 -18 -30 -11 12
-28 68 -28 62 -1 114 14 114 31 0 19 49 11 60 -10 9 -16 21 -20 65 -20 59 0
66 9 35 40 -17 17 -33 20 -114 20 -52 0 -100 1 -108 3 -7 2 -34 2 -60 0z"/>
<path d="M5630 4182 c-79 -2 -109 -7 -122 -19 -31 -28 -22 -43 26 -43 54 0 76
8 76 26 0 20 50 18 65 -2 22 -31 195 -38 195 -8 0 7 -4 14 -10 14 -5 0 -10 7
-10 15 0 11 -12 15 -44 15 -24 0 -50 1 -58 3 -7 1 -60 1 -118 -1z"/>
<path d="M6211 4159 c-19 -32 -19 -55 0 -44 5 4 16 19 24 35 21 41 0 49 -24 9z"/>
<path d="M3150 4174 c8 -3 36 -15 63 -26 50 -23 74 -17 61 15 -5 14 -19 17
-73 16 -36 0 -59 -3 -51 -5z"/>
<path d="M3382 4168 c6 -18 28 -21 28 -4 0 9 -7 16 -16 16 -9 0 -14 -5 -12
-12z"/>
<path d="M3998 4173 c6 -2 18 -2 25 0 6 3 1 5 -13 5 -14 0 -19 -2 -12 -5z"/>
<path d="M4615 4171 c-5 -10 46 -37 65 -35 8 1 22 2 30 3 24 2 -2 17 -48 29
-23 5 -44 7 -47 3z"/>
<path d="M5963 4173 c9 -2 23 -2 30 0 6 3 -1 5 -18 5 -16 0 -22 -2 -12 -5z"/>
<path d="M6577 4159 c7 -25 46 -22 51 4 3 13 -3 17 -26 17 -25 0 -29 -3 -25
-21z"/>
<path d="M6715 4170 c-3 -6 -3 -19 0 -30 6 -19 7 -19 48 3 23 12 53 25 67 28
15 4 -1 7 -42 8 -37 0 -70 -4 -73 -9z"/>
<path d="M5305 4163 c-25 -6 -44 -23 -27 -24 37 -4 50 -1 77 14 l30 16 -30 -1
c-16 0 -39 -2 -50 -5z"/>
<path d="M6098 4123 c7 -3 16 -2 19 1 4 3 -2 6 -13 5 -11 0 -14 -3 -6 -6z"/>
<path d="M3553 6779 c-14 -37 -9 -53 22 -67 15 -7 22 -17 19 -26 -3 -8 -1 -17
4 -20 14 -8 24 41 17 75 -4 16 -13 29 -21 29 -8 0 -18 9 -22 20 -7 18 -9 17
-19 -11z"/>
<path d="M6416 6786 c-4 -15 -11 -23 -19 -20 -19 7 -36 -47 -24 -77 l11 -24 3
26 c3 16 14 31 28 37 21 10 24 16 18 44 -8 43 -9 44 -17 14z"/>
<path d="M7810 6590 c0 -11 6 -20 14 -20 24 0 28 18 6 30 -17 9 -20 8 -20 -10z"/>
<path d="M2168 6583 c7 -3 16 -2 19 1 4 3 -2 6 -13 5 -11 0 -14 -3 -6 -6z"/>
<path d="M709 6215 c-4 -50 -4 -50 -36 -47 -39 4 -43 -10 -8 -26 35 -16 52
-15 59 4 8 22 6 75 -4 99 -6 15 -9 8 -11 -30z"/>
<path d="M9262 6241 c-19 -12 -12 -91 9 -104 12 -8 26 -6 49 5 33 16 26 34 -9
23 -24 -7 -30 2 -33 49 -2 20 -3 36 -3 36 0 0 -6 -4 -13 -9z"/>
<path d="M640 6070 c-12 -8 -10 -10 8 -10 13 0 20 4 17 10 -7 12 -6 12 -25 0z"/>
<path d="M9343 5962 c-23 -3 -75 -60 -132 -145 -32 -47 -42 -67 -82 -170 l-20
-51 21 19 c13 11 52 48 89 83 36 34 119 103 183 152 93 70 114 91 102 98 -18
10 -61 4 -70 -9 -8 -14 -24 -11 -24 5 0 15 -32 23 -67 18z"/>
<path d="M485 5947 c-15 -12 -13 -15 22 -39 65 -43 196 -150 278 -226 43 -39
80 -70 82 -68 9 8 -65 164 -105 223 -65 96 -97 123 -143 123 -28 0 -39 -4 -39
-15 0 -18 0 -18 -42 0 -29 11 -39 12 -53 2z"/>
<path d="M858 5743 c-3 -4 2 -24 10 -43 l16 -35 4 29 c3 28 -20 67 -30 49z"/>
<path d="M9106 5738 c-2 -7 -7 -28 -10 -46 -5 -27 -3 -31 7 -20 19 18 29 65
17 73 -6 3 -12 0 -14 -7z"/>
<path d="M550 5600 c0 -5 9 -10 20 -10 11 0 20 5 20 10 0 6 -9 10 -20 10 -11
0 -20 -4 -20 -10z"/>
<path d="M9420 5601 c0 -5 6 -12 13 -14 7 -3 5 -6 -5 -6 -20 -1 -22 -9 -8 -31
9 -13 12 -13 24 3 16 21 10 57 -10 57 -8 0 -14 -4 -14 -9z"/>
<path d="M550 5571 c0 -5 7 -14 16 -22 13 -10 17 -10 25 2 14 23 11 29 -16 29
-14 0 -25 -4 -25 -9z"/>
<path d="M357 5343 c-15 -15 -5 -23 29 -23 31 0 35 2 24 15 -13 16 -42 20 -53
8z"/>
<path d="M670 5346 c0 -2 7 -7 16 -10 8 -3 12 -2 9 4 -6 10 -25 14 -25 6z"/>
<path d="M9310 5340 c0 -5 7 -7 15 -4 8 4 15 8 15 10 0 2 -7 4 -15 4 -8 0 -15
-4 -15 -10z"/>
<path d="M9597 5343 c-15 -15 -5 -23 29 -23 31 0 35 2 24 15 -13 16 -42 20
-53 8z"/>
<path d="M488 5323 c7 -3 16 -2 19 1 4 3 -2 6 -13 5 -11 0 -14 -3 -6 -6z"/>
<path d="M536 5323 c-11 -11 -6 -23 9 -23 8 0 15 4 15 9 0 13 -16 22 -24 14z"/>
<path d="M9455 5319 c-10 -15 3 -25 16 -12 7 7 7 13 1 17 -6 3 -14 1 -17 -5z"/>
<path d="M9498 5323 c6 -2 18 -2 25 0 6 3 1 5 -13 5 -14 0 -19 -2 -12 -5z"/>
<path d="M590 5273 c-34 -6 -49 -22 -31 -32 32 -20 201 5 201 30 0 13 -27 11
-68 -3 -28 -10 -36 -10 -39 0 -5 12 -17 13 -63 5z"/>
<path d="M9252 5268 c10 -28 178 -47 198 -23 18 21 -64 41 -97 24 -19 -10 -28
-10 -43 -1 -25 16 -63 16 -58 0z"/>
<path d="M9488 5233 c7 -3 16 -2 19 1 4 3 -2 6 -13 5 -11 0 -14 -3 -6 -6z"/>
<path d="M345 5213 c27 -3 54 -8 61 -13 7 -6 18 -4 30 5 17 13 11 14 -61 13
-57 -1 -66 -3 -30 -5z"/>
<path d="M9561 5210 c9 -5 42 -6 80 -1 l64 8 -80 1 c-53 1 -75 -2 -64 -8z"/>
<path d="M540 5202 c0 -11 67 -62 81 -62 9 0 28 13 42 30 l27 30 -23 4 c-27 5
-127 4 -127 -2z"/>
<path d="M9326 5203 c-8 -8 44 -63 60 -63 14 0 74 48 74 58 0 9 -125 14 -134
5z"/>
<path d="M916 4902 c-21 -42 -48 -94 -58 -115 -11 -21 -17 -41 -14 -44 3 -3 1
-12 -6 -20 -8 -10 -8 -17 0 -25 15 -15 62 26 62 53 0 10 5 21 10 24 6 3 10 19
10 34 0 15 9 46 21 70 11 23 19 55 17 71 -3 26 -7 21 -42 -48z"/>
<path d="M9026 4943 c4 -21 15 -55 25 -75 11 -21 19 -49 19 -63 0 -37 49 -115
73 -115 13 0 -2 82 -19 101 -8 8 -14 19 -14 23 0 14 -71 155 -81 162 -7 4 -8
-7 -3 -33z"/>
<path d="M560 4938 c0 -13 5 -30 10 -38 8 -13 11 -13 24 0 20 20 10 60 -15 60
-13 0 -19 -7 -19 -22z"/>
<path d="M9406 4934 c-4 -15 -3 -31 3 -37 15 -15 41 10 41 39 0 35 -36 32 -44
-2z"/>
<path d="M8962 4910 c0 -14 2 -19 5 -12 2 6 2 18 0 25 -3 6 -5 1 -5 -13z"/>
<path d="M1021 4904 c0 -11 3 -14 6 -6 3 7 2 16 -1 19 -3 4 -6 -2 -5 -13z"/>
<path d="M980 4855 c0 -14 32 -66 37 -61 8 7 -17 66 -28 66 -5 0 -9 -2 -9 -5z"/>
<path d="M8977 4831 c-26 -45 -20 -60 8 -19 27 39 30 48 17 48 -4 0 -15 -13
-25 -29z"/>
<path d="M970 4774 c0 -15 27 -50 34 -43 4 3 -2 17 -13 30 -11 13 -20 19 -21
13z"/>
<path d="M8996 4758 c-19 -27 -21 -44 -3 -26 14 13 29 48 22 48 -2 0 -11 -10
-19 -22z"/>
<path d="M931 4713 c2 -10 -1 -29 -5 -41 -16 -49 17 -131 49 -119 13 6 13 11
-5 44 -26 48 -26 73 -1 42 25 -31 36 -19 22 22 -18 53 -66 94 -60 52z"/>
<path d="M9019 4707 c-9 -12 -21 -37 -27 -54 -13 -38 -1 -44 30 -16 17 15 18
15 7 -15 -6 -18 -15 -35 -20 -38 -5 -3 -9 -12 -9 -20 0 -21 33 -17 47 6 18 28
27 96 14 104 -6 4 -11 18 -11 32 0 30 -10 30 -31 1z"/>
<path d="M774 4677 c-38 -33 -23 -55 17 -27 28 20 40 50 20 50 -6 0 -22 -11
-37 -23z"/>
<path d="M9165 4689 c-7 -10 11 -28 47 -49 31 -19 33 12 2 37 -33 26 -40 28
-49 12z"/>
<path d="M660 4579 c8 -8 36 -25 62 -38 27 -12 60 -36 75 -52 16 -16 31 -29
35 -29 5 0 16 -8 26 -17 10 -10 72 -62 138 -115 128 -104 191 -164 182 -173
-3 -3 -32 18 -64 47 -33 30 -75 65 -94 80 -19 14 -46 36 -60 48 -14 12 -45 38
-69 58 -24 21 -49 42 -55 48 -7 7 -19 2 -40 -18 -16 -16 -42 -38 -57 -50 l-27
-22 28 -21 c46 -34 182 -143 234 -188 27 -23 63 -51 80 -61 17 -11 63 -47 101
-81 39 -34 99 -84 135 -111 61 -46 177 -138 210 -168 24 -22 133 -96 140 -96
4 0 41 22 81 50 41 27 81 50 90 50 9 0 22 7 29 15 7 8 19 15 27 15 7 0 24 6
36 14 12 7 60 26 107 41 47 15 92 30 100 33 8 2 35 7 60 9 25 3 50 9 57 14 7
7 13 7 17 0 3 -5 0 -12 -6 -15 -7 -4 -2 -3 12 0 14 4 52 9 85 13 l60 6 -62 33
c-35 18 -89 42 -120 53 -80 30 -90 39 -61 56 15 8 40 11 71 7 31 -4 47 -2 47
5 0 6 7 11 15 11 8 0 15 -4 15 -9 0 -5 14 -4 30 2 24 9 35 9 52 -2 16 -10 22
-10 28 -1 4 7 13 9 20 5 6 -4 29 -7 51 -7 21 0 41 -3 44 -9 4 -5 24 -9 46 -9
21 0 39 -4 39 -10 0 -5 11 -10 24 -10 24 0 98 -37 104 -52 2 -4 14 -8 26 -8
13 0 42 -15 66 -32 23 -18 54 -39 67 -46 13 -7 31 -25 40 -40 10 -15 26 -34
36 -42 37 -29 127 -121 127 -131 0 -5 15 -23 32 -40 31 -29 36 -30 88 -24 30
4 62 13 71 21 9 8 23 12 32 8 9 -3 24 3 36 15 12 12 27 21 34 21 17 0 75 28
82 40 3 4 28 20 57 35 29 15 64 38 79 51 14 13 30 24 36 24 11 0 81 59 153
129 41 40 43 44 25 52 -36 14 -72 9 -91 -12 -17 -19 -19 -19 -25 -2 -12 36
-109 18 -109 -21 0 -6 -10 -22 -23 -36 -29 -33 -60 -81 -54 -86 2 -2 18 3 36
12 28 14 35 14 42 3 6 -9 3 -18 -9 -26 -9 -7 -24 -18 -32 -26 -30 -27 -111
-66 -126 -60 -10 4 -17 -2 -21 -16 -6 -23 -23 -27 -40 -10 -9 9 -14 5 -19 -14
-5 -22 -10 -26 -29 -21 -13 3 -26 1 -29 -5 -4 -6 -20 -11 -35 -11 -15 0 -33
-6 -40 -12 -11 -11 -14 -10 -18 0 -11 30 -96 132 -160 190 -101 94 -106 99
-130 111 -12 6 -25 20 -28 32 -5 14 -13 19 -26 16 -10 -3 -23 1 -30 9 -6 8
-21 14 -33 15 -11 0 -15 3 -8 6 14 6 16 49 2 58 -5 3 -10 17 -10 30 0 28 -30
52 -78 61 -38 8 -39 4 -9 -41 24 -37 36 -42 56 -22 10 10 11 6 5 -18 -10 -43
-19 -49 -45 -31 -13 9 -33 16 -45 16 -28 0 -134 49 -134 61 0 6 -12 26 -26 45
-19 24 -34 34 -55 34 -40 0 -44 -14 -11 -42 46 -39 50 -51 12 -43 -22 5 -35 3
-41 -6 -6 -11 -12 -11 -33 0 -29 16 -169 19 -188 4 -7 -6 -44 -14 -83 -18 -73
-7 -160 -28 -179 -44 -14 -11 -68 -2 -60 10 3 5 14 9 25 9 10 0 19 5 19 10 0
17 -77 11 -135 -11 -30 -11 -55 -24 -55 -29 0 -13 28 -20 60 -13 22 4 30 2 30
-9 0 -8 -35 -30 -81 -52 l-82 -37 -26 24 c-14 13 -71 58 -126 100 -96 72 -102
79 -143 161 -43 86 -86 146 -103 146 -5 0 0 -17 11 -37 11 -21 20 -42 20 -46
0 -5 11 -23 25 -39 27 -32 25 -48 -6 -48 -12 0 -19 7 -19 19 0 11 -15 30 -32
42 -18 13 -59 45 -91 71 -32 26 -62 48 -68 48 -5 0 -43 34 -84 75 -53 53 -73
79 -68 91 5 14 3 15 -16 5 -17 -10 -25 -9 -38 4 -37 38 -65 47 -150 53 -77 4
-86 3 -73 -9z m624 -491 c26 -24 76 -69 110 -100 35 -32 67 -58 73 -58 9 0 41
-33 57 -59 18 -28 -26 6 -173 134 -25 22 -52 45 -59 50 -40 29 -83 75 -71 75
8 0 36 -19 63 -42z m804 -100 c-3 -7 -22 -14 -44 -15 -21 -1 -30 1 -19 4 11 3
24 9 30 14 14 13 37 11 33 -3z m-91 -34 c-3 -3 -12 -4 -19 -1 -8 3 -5 6 6 6
11 1 17 -2 13 -5z m-57 -14 c0 -5 -4 -10 -9 -10 -5 0 -18 -3 -28 -7 -16 -6
-16 -5 -4 10 15 19 41 23 41 7z m1749 -47 c-32 -37 -43 -44 -48 -32 -4 12 47
58 63 59 5 0 -1 -12 -15 -27z m-1834 7 c-3 -5 -13 -10 -21 -10 -8 0 -14 5 -14
10 0 6 9 10 21 10 11 0 17 -4 14 -10z m-285 -59 c0 -5 14 -14 31 -20 24 -8 37
-7 60 5 46 23 57 4 13 -22 -22 -13 -44 -24 -50 -24 -5 0 -27 16 -48 35 -26 23
-33 35 -22 35 9 0 16 -4 16 -9z m177 3 c-3 -3 -12 -4 -19 -1 -8 3 -5 6 6 6 11
1 17 -2 13 -5z"/>
<path d="M1006 4507 c-9 -33 -8 -37 9 -37 9 0 15 9 15 24 0 33 -16 42 -24 13z"/>
<path d="M8957 4518 c-5 -18 3 -48 14 -48 5 0 9 14 9 30 0 30 -15 41 -23 18z"/>
<path d="M1060 4488 c0 -9 6 -27 13 -41 12 -23 14 -24 24 -7 10 14 7 22 -13
41 -19 17 -24 19 -24 7z"/>
<path d="M8897 4476 c-14 -15 -15 -21 -6 -33 11 -12 14 -12 21 2 5 8 8 23 6
32 -3 15 -5 15 -21 -1z"/>
<path d="M2113 4173 c-43 -6 -42 -17 5 -35 36 -15 112 -13 112 2 0 7 -77 43
-83 38 -1 0 -17 -3 -34 -5z"/>
<path d="M7798 4163 c-21 -8 -38 -19 -38 -23 0 -16 71 -18 110 -3 45 18 52 33
16 33 -13 0 -30 2 -38 5 -7 2 -30 -3 -50 -12z"/>
<path d="M1978 4123 c7 -3 16 -2 19 1 4 3 -2 6 -13 5 -11 0 -14 -3 -6 -6z"/>
<path d="M6993 3973 c-39 -41 -55 -73 -35 -73 14 0 52 31 52 43 0 7 9 18 20
25 20 12 27 37 13 45 -5 2 -27 -16 -50 -40z"/>
<path d="M2937 3990 c3 -10 14 -22 24 -25 10 -4 19 -13 19 -22 0 -17 28 -42
48 -43 23 0 12 25 -28 68 -43 45 -72 56 -63 22z"/>
<path d="M4175 3962 c-11 -2 -58 -39 -105 -81 -47 -43 -100 -90 -119 -107 -83
-72 -131 -117 -131 -124 0 -4 10 -8 23 -8 172 0 213 -8 324 -58 29 -14 56 -23
60 -22 25 7 118 -61 224 -162 26 -26 120 -162 132 -193 3 -9 11 -17 16 -17 10
0 8 5 -48 117 -19 37 -27 64 -21 68 6 3 10 1 10 -4 0 -6 5 -11 10 -11 12 0 13
25 1 48 -5 9 -14 29 -20 45 -15 37 -34 35 -29 -3 3 -17 1 -33 -4 -36 -4 -3 -8
-1 -8 4 0 5 -18 30 -41 56 -43 48 -44 59 -2 27 23 -19 53 -19 53 0 0 22 -51
96 -80 117 -18 12 -40 31 -47 42 -8 11 -19 20 -26 20 -6 0 -28 12 -49 26 l-37
26 47 38 c26 21 80 72 121 113 62 63 70 76 55 81 -21 6 -277 5 -309 -2z m-15
-173 c-13 -22 -37 -35 -48 -24 -7 7 34 45 49 45 6 0 5 -9 -1 -21z m-82 -71
c-2 -18 -10 -24 -38 -26 l-35 -2 30 25 c37 31 47 31 43 3z m124 -32 c7 -13 4
-16 -16 -16 -14 0 -28 5 -31 10 -3 6 -15 10 -26 10 -18 0 -26 20 -14 32 10 9
77 -19 87 -36z m101 -51 c10 -23 -9 -26 -34 -5 l-24 19 26 1 c15 0 29 -7 32
-15z m67 -45 c0 -5 -7 -10 -15 -10 -8 0 -15 5 -15 10 0 6 7 10 15 10 8 0 15
-4 15 -10z"/>
<path d="M4678 3962 c-16 -3 -18 -19 -18 -170 0 -161 1 -169 26 -216 14 -27
35 -59 46 -70 10 -12 40 -49 66 -83 26 -34 56 -67 68 -73 11 -6 29 -26 39 -43
10 -18 28 -39 39 -47 49 -36 51 -35 171 84 63 63 115 117 115 120 0 2 14 20
30 38 17 18 30 36 30 41 0 5 7 23 15 40 10 24 15 78 17 205 2 94 1 172 -2 173
-15 3 -628 4 -642 1z m486 -177 c8 -8 22 -15 30 -15 13 0 16 -13 18 -57 0 -32
0 -70 -1 -84 -1 -19 5 -29 26 -39 l28 -14 -32 -4 c-25 -3 -43 -17 -89 -74 -31
-38 -70 -82 -86 -97 -17 -14 -37 -39 -46 -56 -10 -21 -17 -25 -20 -15 -2 8
-27 36 -54 62 l-50 47 21 30 c23 32 37 39 43 21 4 -12 107 5 122 20 15 15 -10
59 -36 65 -24 6 -98 -19 -98 -34 0 -4 -16 -24 -36 -45 l-35 -36 -36 47 c-42
56 -51 63 -80 63 -31 0 -29 16 3 24 25 7 26 9 20 57 -5 40 -4 51 9 55 14 6 14
8 -1 25 -17 19 -13 49 6 49 15 0 32 -49 34 -99 1 -35 6 -48 28 -64 39 -29 61
-17 54 31 -6 33 -4 39 23 54 28 15 30 15 47 -3 17 -19 17 -21 -11 -46 -26 -25
-27 -27 -9 -34 14 -5 25 0 41 17 22 24 43 32 43 16 0 -14 45 -62 57 -62 6 0
15 -10 19 -22 6 -21 7 -21 18 -1 6 11 18 18 26 15 12 -3 12 -2 3 8 -9 10 -9
19 3 41 18 36 20 66 6 102 -6 15 -13 27 -15 27 -1 0 -20 -9 -42 -20 -21 -11
-41 -18 -43 -15 -6 5 59 73 70 74 4 1 13 -6 22 -14z"/>
<path d="M4993 3438 c-38 -12 -40 -19 -15 -41 16 -15 20 -14 50 12 17 16 32
31 32 35 0 9 -29 6 -67 -6z"/>
<path d="M5496 3962 c-6 -9 201 -217 224 -225 11 -3 8 -8 -11 -15 -15 -6 -29
-18 -33 -27 -3 -9 -11 -13 -17 -9 -6 4 -25 -7 -43 -25 -17 -17 -45 -42 -62
-55 -40 -32 -74 -104 -54 -116 9 -5 23 -2 38 11 37 29 48 23 16 -9 -16 -15
-34 -36 -40 -47 -17 -31 -31 -28 -26 5 2 18 0 30 -7 30 -14 0 -51 -73 -51
-100 0 -22 15 -27 24 -7 3 6 3 -1 0 -18 -3 -16 -9 -32 -13 -35 -6 -4 -31 -65
-31 -76 0 -2 5 -4 10 -4 6 0 10 4 10 9 0 24 69 112 144 186 73 71 158 129 190
130 6 0 33 10 60 23 27 12 54 22 61 22 7 0 26 7 41 15 16 8 52 15 79 15 105 0
165 3 165 10 0 3 -68 67 -152 140 -83 74 -160 144 -170 155 -17 18 -34 20
-183 23 -90 2 -166 -1 -169 -6z m369 -177 c30 -30 31 -37 8 -28 -23 8 -53 34
-53 45 0 15 19 8 45 -17z m90 -70 l30 -25 -34 2 c-25 2 -36 9 -42 26 -11 30 8
29 46 -3z m-77 -7 c2 -9 -6 -18 -20 -21 -13 -3 -37 -10 -55 -15 -31 -10 -32
-10 -21 14 7 15 20 24 34 24 13 0 26 5 29 11 9 14 29 6 33 -13z m-138 -63 c0
-2 -13 -11 -30 -20 -32 -16 -34 -16 -24 9 5 14 54 24 54 11z m-90 -55 c0 -5
-7 -10 -15 -10 -8 0 -15 5 -15 10 0 6 7 10 15 10 8 0 15 -4 15 -10z"/>
<path d="M7728 3843 c7 -3 16 -2 19 1 4 3 -2 6 -13 5 -11 0 -14 -3 -6 -6z"/>
<path d="M3259 3702 c-13 -11 -18 -21 -12 -25 6 -4 21 5 33 18 27 29 13 33
-21 7z"/>
<path d="M6696 3707 c2 -7 13 -18 24 -25 17 -10 20 -10 20 3 0 8 -9 19 -19 25
-26 13 -31 13 -25 -3z"/>
<path d="M5380 3205 c0 -8 4 -15 9 -15 5 0 11 7 15 15 3 9 0 15 -9 15 -8 0
-15 -7 -15 -15z"/>
<path d="M1388 2808 c7 -7 12 -22 12 -34 0 -13 5 -26 10 -29 6 -4 10 -79 10
-191 0 -187 6 -224 37 -224 12 0 9 -6 -11 -25 l-26 -24 0 -191 c0 -120 -4
-190 -10 -190 -5 0 -10 -13 -10 -29 0 -17 -6 -33 -12 -38 -15 -9 53 -21 129
-22 l51 -1 -16 43 c-9 23 -20 43 -24 45 -5 2 -8 89 -8 193 l0 189 80 0 80 0 0
-190 c0 -120 -4 -190 -10 -190 -5 0 -10 -13 -10 -29 0 -17 -6 -33 -12 -38 -15
-9 53 -21 129 -22 l52 -1 -15 28 c-7 15 -14 35 -14 45 0 9 -4 17 -10 17 -7 0
-10 147 -10 420 0 231 4 420 8 420 4 0 13 18 19 40 l10 40 -90 0 c-71 0 -88
-3 -79 -12 7 -7 12 -25 12 -40 0 -15 5 -28 10 -28 6 0 10 -70 10 -190 l0 -191
-77 3 -78 3 -3 188 c-1 106 1 187 7 187 5 0 13 18 19 40 l10 40 -91 0 c-71 0
-88 -3 -79 -12z"/>
<path d="M3742 2795 c-6 -13 -19 -29 -29 -36 -16 -10 -18 -28 -15 -207 2 -185
4 -198 23 -214 l21 -18 -21 -17 c-19 -17 -21 -29 -23 -212 l-3 -195 26 -25
c14 -15 28 -33 31 -41 4 -12 30 -16 131 -18 113 -3 127 -2 127 13 0 9 12 29
28 44 l27 27 -3 163 c-3 160 -3 163 -22 146 -11 -10 -33 -20 -51 -24 l-31 -6
1 -117 c3 -150 -1 -158 -79 -158 -48 0 -61 4 -70 19 -6 13 -10 157 -10 401 0
244 4 388 10 401 9 15 22 19 71 19 56 0 60 -2 70 -27 6 -16 9 -40 6 -55 -3
-25 0 -28 23 -28 29 0 60 -27 60 -51 -1 -10 -3 -9 -11 4 -12 20 -59 23 -77 5
-18 -18 -15 -45 8 -68 24 -24 49 -25 76 -6 16 12 20 30 24 123 5 102 4 109
-17 126 -12 10 -25 26 -28 37 -6 19 -16 20 -134 20 -126 0 -128 0 -139 -25z"/>
<path d="M1874 2704 c9 -8 16 -26 16 -40 0 -13 5 -24 10 -24 6 0 10 -53 10
-140 0 -140 0 -141 26 -165 20 -18 23 -25 11 -25 -27 0 -32 -21 -37 -164 l-5
-140 28 -27 c15 -15 27 -35 27 -43 0 -14 18 -16 131 -16 l130 0 10 29 c5 15
21 34 34 41 19 10 22 17 15 31 -6 10 -10 142 -10 307 0 297 0 300 41 375 8 16
1 17 -92 17 -91 0 -99 -1 -85 -16 9 -8 16 -26 16 -40 0 -13 5 -24 10 -24 6 0
10 -53 10 -140 0 -140 0 -141 26 -165 20 -19 23 -25 11 -25 -29 0 -37 -36 -37
-157 0 -65 -4 -124 -9 -131 -11 -18 -80 -26 -113 -13 l-28 11 0 302 c0 293 4
340 33 386 6 9 -14 12 -93 12 -92 0 -100 -1 -86 -16z"/>
<path d="M2376 2688 c9 -18 19 -41 25 -50 5 -10 9 -78 9 -152 0 -128 1 -136
22 -150 l22 -16 -22 -16 c-21 -14 -22 -22 -22 -148 0 -131 -4 -150 -41 -218
-8 -17 -1 -18 92 -18 91 0 99 1 85 16 -9 8 -16 26 -16 39 0 13 -5 25 -10 27
-7 2 -9 81 -8 226 l3 222 69 -265 69 -265 81 0 c47 0 76 4 68 9 -7 4 -18 26
-22 47 -13 55 -13 664 0 664 6 0 10 11 10 24 0 14 7 32 16 40 14 15 6 16 -85
16 l-99 0 14 -32 c9 -18 20 -41 25 -51 6 -10 9 -78 8 -151 -2 -136 1 -156 27
-156 21 0 17 -18 -6 -25 -11 -3 -20 -14 -20 -22 0 -40 -17 12 -69 214 l-57
218 -91 3 -92 3 15 -33z"/>
<path d="M2920 2701 c0 -11 -12 -30 -27 -43 -28 -23 -28 -23 -23 -127 4 -90 7
-102 19 -88 7 9 31 22 52 27 l39 11 0 70 c0 65 1 70 26 79 14 6 30 10 35 10 5
0 9 -56 9 -129 0 -135 9 -181 35 -181 21 0 19 -5 -10 -34 -24 -24 -25 -30 -25
-153 0 -118 -9 -173 -33 -210 -6 -10 14 -13 93 -13 92 0 100 1 86 16 -9 8 -16
26 -16 40 0 13 -4 24 -10 24 -6 0 -10 114 -10 321 l0 320 23 -6 c37 -12 49
-35 45 -95 l-3 -56 52 -20 52 -21 3 99 c3 93 2 100 -19 114 -13 8 -25 25 -29
39 l-6 25 -179 0 c-170 0 -179 -1 -179 -19z"/>
<path d="M4252 2703 c26 -30 28 -77 8 -195 -25 -145 -25 -162 3 -181 16 -12
18 -16 6 -16 -33 -2 -48 -37 -69 -161 -19 -113 -33 -162 -61 -212 -8 -17 -2
-18 86 -18 l95 0 -16 25 c-8 13 -13 29 -9 35 4 6 2 16 -3 23 -14 17 8 134 34
177 20 35 85 76 107 67 19 -7 50 -201 41 -257 -4 -25 -11 -51 -17 -57 -7 -10
11 -13 87 -13 l97 0 -15 22 c-9 12 -16 30 -16 39 0 10 -4 19 -10 21 -5 2 -32
139 -60 306 -51 308 -55 366 -23 398 13 12 -5 14 -133 14 -139 0 -146 -1 -132
-17z m163 -273 c14 -79 25 -149 25 -156 0 -9 -10 -8 -40 2 -21 8 -46 11 -55 8
-20 -8 -19 -4 10 160 14 77 25 142 26 145 2 14 10 -25 34 -159z"/>
<path d="M4674 2704 c9 -8 16 -26 16 -40 0 -13 5 -24 10 -24 6 0 10 -53 10
-140 0 -140 0 -141 26 -165 20 -19 23 -25 11 -25 -29 0 -37 -37 -37 -174 0
-84 -4 -136 -10 -136 -5 0 -10 -11 -10 -24 0 -14 -7 -32 -16 -40 -14 -15 5
-16 206 -16 l221 0 -13 23 c-7 12 -14 75 -16 145 -4 103 -7 121 -18 111 -8 -6
-29 -15 -47 -18 l-32 -7 -5 -76 c-3 -42 -8 -79 -12 -83 -12 -13 -83 -17 -110
-6 l-28 11 0 302 c0 293 4 340 33 386 6 9 -14 12 -93 12 -92 0 -100 -1 -86
-16z"/>
<path d="M5244 2695 c-3 -14 -15 -32 -27 -40 -19 -13 -20 -23 -18 -157 2 -131
3 -144 22 -160 l21 -18 -21 -17 c-19 -17 -21 -29 -22 -161 -1 -133 0 -145 19
-158 11 -7 23 -25 26 -39 l6 -25 129 0 129 0 6 25 c4 14 16 31 29 39 21 14 22
20 19 126 -3 97 -5 108 -18 95 -8 -8 -32 -19 -52 -24 l-37 -10 3 -65 c3 -56 1
-67 -18 -86 -19 -19 -30 -21 -68 -17 -28 3 -51 12 -59 23 -10 14 -13 82 -13
294 0 320 -1 315 79 315 60 0 76 -13 76 -65 0 -35 2 -39 21 -34 26 7 64 -26
64 -53 0 -14 -3 -13 -16 5 -37 53 -106 2 -70 -53 11 -17 25 -25 45 -25 48 0
60 24 62 131 1 91 0 97 -25 122 -14 14 -26 33 -26 42 0 13 -19 15 -130 15
l-130 0 -6 -25z"/>
<path d="M5656 2688 c9 -18 19 -41 25 -50 5 -10 9 -81 9 -159 0 -132 1 -141
20 -146 11 -3 20 -8 20 -12 0 -3 -9 -12 -20 -19 -18 -11 -20 -23 -20 -138 0
-69 -4 -133 -10 -143 -7 -14 -4 -21 16 -32 14 -7 28 -25 31 -41 l6 -28 133 0
c125 0 134 1 134 19 0 11 12 30 28 43 l27 23 -3 318 c-1 209 1 317 8 317 5 0
10 13 10 28 0 15 5 33 12 40 9 9 -10 12 -86 12 -75 0 -95 -3 -89 -12 24 -38
33 -93 33 -205 0 -127 9 -173 35 -173 8 0 15 -4 15 -10 0 -5 -7 -10 -15 -10
-26 0 -35 -46 -35 -171 l0 -119 -27 -11 c-34 -13 -103 -5 -114 13 -13 19 -11
618 1 618 6 0 10 13 10 30 0 17 7 33 18 39 12 8 -11 10 -85 11 l-101 0 14 -32z"/>
<path d="M6147 2688 c9 -18 20 -41 25 -50 4 -10 8 -78 8 -152 0 -128 1 -136
22 -150 l22 -16 -22 -16 c-21 -14 -22 -22 -22 -150 0 -74 -4 -142 -8 -152 -5
-9 -16 -32 -25 -49 l-16 -33 220 0 220 0 -15 22 c-13 18 -16 51 -16 152 0 126
0 129 -19 112 -10 -9 -34 -21 -52 -26 l-34 -10 3 -64 c3 -56 1 -67 -18 -86
-18 -18 -30 -21 -66 -17 -77 8 -74 -7 -74 328 0 188 4 300 10 304 6 3 10 17
10 30 0 13 7 31 16 39 14 15 6 16 -85 16 l-100 0 16 -32z"/>
<path d="M6732 2703 c26 -30 28 -77 8 -195 -25 -145 -25 -162 3 -181 16 -12
18 -16 6 -16 -33 -2 -48 -37 -69 -161 -19 -113 -33 -162 -61 -212 -8 -17 -2
-18 86 -18 l95 0 -16 25 c-8 13 -13 29 -9 35 4 6 2 16 -3 23 -14 17 8 134 34
177 20 35 85 76 107 67 19 -7 50 -201 41 -257 -4 -25 -11 -51 -17 -57 -7 -10
11 -13 87 -13 l97 0 -15 22 c-9 12 -16 30 -16 39 0 10 -4 19 -10 21 -5 2 -32
139 -60 306 -51 308 -55 366 -23 398 13 12 -5 14 -133 14 -139 0 -146 -1 -132
-17z m163 -273 c14 -79 25 -149 25 -156 0 -9 -10 -8 -40 2 -21 8 -46 11 -55 8
-20 -8 -19 -4 10 160 14 77 25 142 26 145 2 14 10 -25 34 -159z"/>
<path d="M7214 2694 c-4 -14 -20 -34 -36 -44 -18 -11 -25 -20 -19 -24 7 -4 11
-44 11 -98 0 -71 3 -88 13 -80 6 5 30 15 52 21 l40 10 0 68 c0 64 2 68 28 81
15 7 32 10 37 7 6 -4 10 -64 10 -145 0 -132 1 -140 22 -154 l22 -16 -22 -16
c-21 -14 -22 -22 -22 -160 0 -89 -4 -144 -10 -144 -5 0 -10 -11 -10 -24 0 -14
-7 -32 -16 -40 -14 -15 -6 -16 85 -16 l100 0 -14 28 c-7 15 -18 38 -24 52 -8
17 -11 121 -9 330 l3 305 25 -4 c34 -4 40 -16 40 -88 l0 -62 39 -11 c21 -5 45
-18 52 -27 12 -14 15 -2 19 88 5 104 5 104 -22 127 -16 13 -28 32 -28 43 0 18
-9 19 -180 19 l-180 0 -6 -26z"/>
<path d="M7770 2690 c-7 -17 -24 -37 -38 -44 -16 -8 -21 -16 -13 -20 7 -5 11
-51 11 -141 0 -127 1 -135 22 -149 l22 -16 -22 -16 c-21 -14 -22 -22 -22 -148
0 -83 -4 -136 -11 -143 -8 -8 -5 -13 11 -18 12 -4 28 -22 36 -41 l14 -34 130
0 c111 0 130 2 130 15 0 9 11 27 25 41 l26 25 0 321 0 320 -26 20 c-14 10 -25
28 -25 39 0 18 -8 19 -129 19 l-129 0 -12 -30z m184 -60 c26 -9 26 -11 26
-119 0 -133 7 -172 32 -178 23 -7 23 -11 -4 -33 -21 -17 -23 -27 -26 -147 -3
-104 -6 -130 -20 -140 -23 -19 -86 -16 -111 5 -21 17 -21 21 -19 307 l3 289
25 13 c30 15 60 16 94 3z"/>
<path d="M8186 2688 c9 -18 19 -41 25 -50 5 -10 9 -78 9 -152 0 -128 1 -136
22 -150 l22 -16 -22 -16 c-21 -14 -22 -22 -22 -148 0 -131 -4 -150 -41 -218
-8 -17 -1 -18 92 -18 91 0 99 1 85 16 -9 8 -16 26 -16 40 0 13 -4 24 -10 24
-15 0 -13 215 3 227 6 5 33 22 59 36 l47 27 18 -27 c13 -20 19 -53 21 -130 4
-102 -1 -126 -39 -195 -8 -17 -1 -18 92 -18 91 0 99 1 85 16 -9 8 -16 26 -16
40 0 13 -5 24 -10 24 -7 0 -10 46 -9 134 1 131 1 133 -25 159 -32 33 -33 51
-2 65 24 11 25 14 28 147 l3 135 -27 20 c-16 11 -28 29 -28 40 0 19 -8 20
-179 20 l-179 0 14 -32z m276 -66 c7 -7 14 -51 16 -106 l4 -94 -73 -42 c-41
-24 -77 -45 -81 -47 -5 -2 -8 66 -8 153 l0 156 65 -4 c36 -2 70 -9 77 -16z"/>
</g>
</svg>
